<svg xmlns="http://www.w3.org/2000/svg" xmlns:xlink="http://www.w3.org/1999/xlink" width="565" height="808" viewBox="0 0 565 808"><path fill="#DBE6F1" d="M121 39.9h1.1V45h3v-2.2h.5V45h3.6v-5.1h1.1V45h3v-2.2h.5V45h3.6v-5.1h1.1V45h3v-2.2h.6V45h3.6v-5.1h1.1V45h3v-2.2h.5V45h3.6v-5.1h1.1V45h3v-2.2h.5V45h2.5V32.2H0V45h1.6v-2.2h.5V45h3.6v-5.1h1.1V45h3v-2.2h.5V45h3.5v-2.2h.1v-2.9H15V45h3v-2.2h.6V45h3.6v-5.1h1V45h3.1v-2.2h.5V45h3.6v-5.1h1.1V45h3v-2.2h.5V45h3.6v-5.1h1.1V45h3v-2.2h.6V45h3.6v-5.1H48V45h3v-2.2h.5V45h3.6v-5.1h1.1V45h3v-2.2h.5V45h3.6v-5.1h1.1V45h3v-2.2h.6V45h3.6v-5.1h1.1V45h3v-2.2h.5V45h3.6v-5.1h1.1V45h3v-2.2h.5V45H88v-5.1h1.1V45h3v-2.2h.6V45h3.6v-5.1h1.1V45h3v-2.2h.5V45h3.6v-5.1h1.1V45h3v-2.2h.5V45h3.6v-5.1h1.1V45h2.8v-2.2h.5V45h3.9v-5.1z"/><path fill="#FFF" d="M122.1 39.9H121V45h1.1v-5.1zM113.8 39.9h-1.1V45h1.1v-5.1zM130.3 39.9h-1.1V45h1.1v-5.1zM155 39.9h-1.1V45h1.1v-5.1zM146.8 39.9h-1.1V45h1.1v-5.1zM138.5 39.9h-1.1V45h1.1v-5.1zM158 45h.5v-2.2h-.5V45zM149.8 45h.5v-2.2h-.5V45zM141.5 45h.6v-2.2h-.6V45zM133.8 45v-2.2h-.5V45h.5zM125.1 45h.5v-2.2h-.5V45zM116.6 45h.5v-2.2h-.5V45zM39.7 39.9h-1.1V45h1.1v-5.1zM31.5 39.9h-1.1V45h1.1v-5.1zM64.4 39.9h-1.1V45h1.1v-5.1zM56.2 39.9h-1.1V45h1.1v-5.1zM48 39.9h-1.1V45H48v-5.1zM89.1 39.9H88V45h1.1v-5.1zM80.9 39.9h-1.1V45h1.1v-5.1zM72.7 39.9h-1.1V45h1.1v-5.1zM105.6 39.9h-1.1V45h1.1v-5.1zM97.4 39.9h-1.1V45h1.1v-5.1zM23.2 39.9h-1V45h1v-5.1zM15 39.9h-1.1v2.9h-.1V45H15v-5.1zM6.8 39.9H5.7V45h1.1v-5.1zM18.6 45v-2.2H18V45h.6zM10.3 45v-2.2h-.5V45h.5zM1.6 45h.5v-2.2h-.5V45zM108.6 45h.5v-2.2h-.5V45zM100.9 45v-2.2h-.5V45h.5zM92.1 45h.6v-2.2h-.6V45zM83.9 45h.5v-2.2h-.5V45zM75.7 45h.5v-2.2h-.5V45zM67.4 42.8V45h.6v-2.2h-.6zM59.2 45h.5v-2.2h-.5V45zM51 45h.5v-2.2H51V45zM42.7 45h.6v-2.2h-.6V45zM35 45v-2.2h-.5V45h.5zM26.3 45h.5v-2.2h-.5V45z"/><path fill="#4598D3" d="M28.9 32.2h-3.5l-.8-3.7c-2.9 3.3-5.6 4.4-9.5 4.4-9.4 0-15-7.5-15-16.5S5.7-.1 15.1-.1C22 0 27.8 3.7 28.6 10.7h-5.4c-.5-4.1-4.1-6.3-8.1-6.3-6.7 0-9.5 5.9-9.5 12 0 6 2.8 12 9.5 12 5.6.1 8.7-3.3 8.8-8.6h-8.4v-4.2h13.4v16.6zM28.2.7h25.4v4.8h-10v26.7h-5.5V5.5h-9.9V.7z"/><g fill="#84B0DE"><path d="M48.9 9.4h4.8v3.2h.1c1.5-2.2 3.4-3.8 7-3.8 2.8 0 5.4 1.2 6.4 3.8 1.7-2.3 3.8-3.8 7.1-3.8 4.8 0 7.6 2.1 7.6 7.7v15.7h-5V18.9c0-3.6-.2-6.1-4.1-6.1-3.4 0-4.8 2.2-4.8 6.1v13.3h-5V17.6c0-3.1-1-4.8-4-4.8-2.6 0-5 2.1-5 5.9v13.5h-5V9.4zM87.9 22.1c0 3.6 1.9 6.7 6.1 6.7 2.9 0 4.7-1.3 5.5-3.8h4.8c-1.1 5-5.3 7.8-10.3 7.8-7.1 0-11.1-5-11.1-12 0-6.5 4.2-12 11-12 7.2 0 11.6 6.5 10.7 13.3H87.9zm11.7-3.3c-.2-3.2-2.3-6-5.7-6-3.5 0-5.9 2.6-6 6h11.7z"/></g><g fill="#84B0DE"><path d="M103 9.4h3.8V2.6h5v6.8h4.5v3.7h-4.5v12.2c0 2.1.2 3.1 2.4 3.1.7 0 1.4 0 2.1-.2v3.9c-1.1.1-2.2.3-3.3.3-5.2 0-6.2-2-6.3-5.8V13.2H103V9.4zM117.3 9.4h4.7v4.4h.1c.6-2.4 3.6-4 6.6-4 1.1 0 1.5.1 1.9.1v3.8c-.7-.1-1.5-.2-2.2-.2-3.4 0-6.2 2.8-6.2 7.8v10.8h-5V9.4z"/></g><g fill="#84B0DE"><path d="M131.8.7h5v4.8h-5V.7zm0 8.7h5v22.8h-5V9.4zM146.3 20.2l-7.9-10.8h6.1l4.8 7 5-7h5.8L152.2 20l8.7 12.2h-6l-5.8-8.4-5.6 8.4h-5.9l8.7-12z"/></g><g><path fill="#3C517B" d="M60 53h22v22H60z"/><path fill-rule="evenodd" clip-rule="evenodd" fill="#FFF" d="M80.3 59l-.1-2.5h-2.4c-1.3 0-3 .8-3 2.6v2.3h-1.5V64h1.5v7.4h3V64H80l.4-2.6h-2.6v-1.3c0-.5.4-1.1 1-1.1h1.5z"/></g><g><path fill="#F68A21" d="M90 53h22v22H90z"/><path fill="#FFF" d="M97.3 69.6c0 1.1-.9 2-2 2s-2-.9-2-2 .9-2 2-2 2 .9 2 2zM93.3 64.5c1.9 0 3.7.7 5 2.1 1.3 1.3 2.1 3.1 2.1 5.1h2.9c0-5.5-4.5-10.1-10-10.1v2.9z"/><path fill="#FFF" d="M93.3 59.3c6.8 0 12.3 5.5 12.3 12.3h2.9c0-8.4-6.8-15.3-15.2-15.3v3z"/></g><g><path fill="#4DC0EF" d="M0 53h22v22H0z"/><path fill="#FFF" d="M18.9 59.1c-.6.3-1.2.4-1.9.5.7-.4 1.2-1 1.4-1.8-.6.4-1.3.6-2.1.8-.6-.6-1.4-1-2.4-1-1.8 0-3.3 1.5-3.3 3.3 0 .3 0 .5.1.7-2.7-.1-5.1-1.4-6.7-3.4-.3.5-.4 1-.4 1.6 0 1.1.6 2.1 1.5 2.7-.5 0-1-.2-1.5-.4 0 1.6 1.1 2.9 2.6 3.2-.3.1-.6.1-.9.1-.2 0-.4 0-.6-.1.4 1.3 1.6 2.2 3 2.3-1.1.9-2.5 1.4-4 1.4h-.8c1.4.9 3.2 1.5 5 1.5 6 0 9.3-5 9.3-9.3v-.4c.8-.5 1.3-1.1 1.7-1.7z"/></g><path fill="#4DC0EF" d="M141.5 125c-.8.3-1.6.6-2.5.7.9-.5 1.6-1.4 1.9-2.4-.8.5-1.8.8-2.7 1-.8-.8-1.9-1.4-3.1-1.4-2.4 0-4.3 1.9-4.3 4.3 0 .3 0 .7.1 1-3.6-.2-6.8-1.9-8.9-4.5-.4.6-.6 1.4-.6 2.2 0 1.5.8 2.8 1.9 3.6-.7 0-1.4-.2-2-.5v.1c0 2.1 1.5 3.8 3.5 4.2-.4.1-.7.2-1.1.2-.3 0-.5 0-.8-.1.5 1.7 2.1 2.9 4 3-1.5 1.2-3.3 1.8-5.4 1.8-.3 0-.7 0-1-.1 1.9 1.2 4.2 1.9 6.6 1.9 7.9 0 12.3-6.5 12.3-12.2v-.6c.8-.6 1.5-1.3 2.1-2.2z"/><path fill="#646565" d="M160.5 100.5H141v16s-.5.1-.5-.6V102.6h-1v13.2c0 .9.7 1.6 1.6 1.6h19.5l-.1-16.9zm-18.2 1.5h17.1v3.3h-17.1V102zm17 5v5.1H154V107h5.3zm0 8.6h-17.1V114h17.1v1.6zm-6.4-3.5h-10.6v-1.6h10.6v1.6zm0-3.5h-10.6V107h10.6v1.6z"/><path fill="#AF4367" d="M30 53h22v22H30z"/><g><path fill="#FFF" d="M47.2 63.3l-2.8 2.8c-1.5 1.5-4 1.5-5.6 0-.2-.2-.4-.5-.6-.8l1.3-1.3c.1-.1.1-.1.2-.1.1.3.2.6.5.8.8.8 2 .8 2.8 0l2.8-2.8c.8-.8.8-2 0-2.8-.8-.8-2-.8-2.8 0l-1 1c-.8-.3-1.7-.4-2.5-.3l2.1-2.1c1.5-1.5 4-1.5 5.6 0 1.6 1.6 1.6 4.1 0 5.6zm-7.4 4.6l-1 1c-.8.8-2 .8-2.8 0-.8-.8-.8-2 0-2.8l2.8-2.8c.8-.8 2-.8 2.8 0 .2.2.4.5.5.8.1 0 .1-.1.2-.1l1.3-1.3c-.2-.3-.4-.6-.6-.8-1.5-1.5-4-1.5-5.6 0l-2.8 2.8c-1.5 1.5-1.5 4 0 5.6 1.5 1.5 4 1.5 5.6 0l2.1-2.1c-.8.1-1.7 0-2.5-.3z"/></g><g><path fill="#444445" d="M0 81h40v32H0z"/><path fill="#FFF" d="M6 87h28v4H6zM6 95h28v4H6zM6 103h28v4H6z"/><path fill="#DFDEDE" d="M50 81h40v32H50z"/><path fill="#646565" d="M56 87h28v4H56zM56 95h28v4H56zM56 103h28v4H56z"/><path fill="#444445" d="M20 139.4l-3.6 3.6-6.4-6.4-6.4 6.4-3.6-3.6 6.4-6.4-6.4-6.4 3.6-3.6 6.4 6.4 6.4-6.4 3.6 3.6-6.4 6.4z"/><path fill="#2E5875" d="M50 139.4l-3.6 3.6-6.4-6.4-6.4 6.4-3.6-3.6 6.4-6.4-6.4-6.4 3.6-3.6 6.4 6.4 6.4-6.4 3.6 3.6-6.4 6.4z"/><path fill="#E8E8E8" d="M120 53h16v17h-16z"/><path fill="#646565" d="M126.8 62.6h1.7l.1-1.2c1.2-.3 1.9-1.3 1.9-2.5 0-1.5-1.1-2.6-2.6-2.6s-2.6 1.1-2.5 2.6h1.8v-.1c0-.5.3-1 .8-1 .6 0 .8.6.8 1.1 0 .9-.7 1.3-1.5 1.3h-.4v2.4zM127.6 63.8c-.6 0-1.1.5-1.1 1.1 0 .6.5 1.1 1.1 1.1.6 0 1.1-.5 1.1-1.1 0-.6-.5-1.1-1.1-1.1z"/><path fill="#646665" d="M145 53h16v17h-16z"/><path fill="#FFF" d="M151.8 62.6h1.7l.1-1.2c1.2-.3 1.9-1.3 1.9-2.5 0-1.5-1.1-2.6-2.6-2.6s-2.6 1.1-2.5 2.6h1.8v-.1c0-.5.3-1 .8-1 .6 0 .8.6.8 1.1 0 .9-.7 1.3-1.5 1.3h-.4v2.4zM152.6 63.8c-.6 0-1.1.5-1.1 1.1 0 .6.5 1.1 1.1 1.1s1.1-.5 1.1-1.1c0-.6-.5-1.1-1.1-1.1z"/><g fill="#81AECD"><path d="M99.7 82.6h9.4V92h-9.4v-9.4zm1.6 7.8h6.3v-6.3h-6.3v6.3z"/><path d="M104.6 81h6.1v6.2z"/><path d="M103.645 86.366l4.594-4.598 1.84 1.838-4.595 4.598z"/></g><path fill="#C0C0C0" d="M135.1 93.9l-3.6-3.6-.1-.1c.6-.9 1-2 1-3.2 0-3.3-2.7-5.9-5.9-5.9-3.3 0-5.9 2.7-5.9 5.9 0 3.3 2.7 5.9 5.9 5.9 1.2 0 2.3-.4 3.2-1l.1.1 3.6 3.6c.2.2.6.4.9.4.3 0 .6-.1.9-.4.4-.5.4-1.2-.1-1.7zm-8.7-2.9c-2.2 0-4.1-1.8-4.1-4.1 0-2.2 1.8-4.1 4.1-4.1 2.2 0 4.1 1.8 4.1 4.1s-1.8 4.1-4.1 4.1zM76.5 137.9l-3.1 3.1-5.4-5.4-5.4 5.4-3.1-3.1 5.4-5.4-5.4-5.4 3.1-3.1 5.4 5.4 5.4-5.4 3.1 3.1-5.4 5.4z"/><path fill-rule="evenodd" clip-rule="evenodd" fill="#646565" d="M112.5 106l-6.5 6-6.5-6 2.1-2 4.4 4 4.4-4 2.1 2zM159 86h-5v-5h-4v5h-5v4h5v5h4v-5h5z"/><path fill-rule="evenodd" clip-rule="evenodd" fill="#444545" d="M86 130h8l-4 5-4-5zM108 130l4 5h-8l4-5z"/><g fill="#646565"><path d="M54 148l-14.1 8.6v15.8l3.6 2.2v-15.9l10.5-6.3 10.5 6.3v15.9l3.6-2.2v-15.8z"/><path d="M56.1 158v18.5l-2.1 1.2-2.1-1.2V158l-4.6 2.9V177l6.7 4 6.7-4v-16.1z"/></g><g fill="#646565"><path d="M96 148c-9.1 0-16.5 7.4-16.5 16.5S86.9 181 96 181s16.5-7.4 16.5-16.5S105.1 148 96 148zm0 32c-8.6 0-15.5-6.9-15.5-15.5S87.4 149 96 149s15.5 6.9 15.5 15.5S104.6 180 96 180z"/><path d="M96 150.3c3.7 0 7.1 1.4 9.6 3.7-1.2 0-2.5.7-2.5 2.4-.1 3.4 4.1 4.1 1.8 11l-1.9 5.7-5-14.9c-.1-.2 0-.4.3-.4h1.4c.1 0 .1-.1.1-.1v-.8c0-.1-.1-.1-.1-.1-2.7.1-5.4.1-8.1 0-.1 0-.1.1-.1.1v.8c0 .1.1.1.1.1H93c.3 0 .4.1.5.3l2.1 5.7-3.1 9.5-5.2-15.2c-.1-.2 0-.3.2-.3h1.6c.1 0 .1-.1.1-.1v-.8c0-.1-.1-.1-.1-.1-1.7.1-3.5.1-5.1.1 2.6-4 7-6.6 12-6.6zM108.5 157.7c1.1 2 1.7 4.3 1.7 6.8 0 5.4-3 10-7.4 12.4l4.4-12.5c.7-1.9 1.4-4.5 1.3-6.7z"/><path d="M100.8 177.9c-1.5.5-3.1.8-4.8.8-1.4 0-2.8-.2-4.1-.6l4.4-12.5 4.5 12.3zM89.9 177.3c-4.8-2.3-8.1-7.2-8.1-12.8 0-2.1.5-4.1 1.3-5.9l6.8 18.7z"/></g><g fill="#646565"><path d="M14.7 169.3l3.8 3.8 1.8-1.8-3.8-3.8c.2-.8 0-1.8-.6-2.4-.7-.7-1.6-.9-2.4-.6l-1.1-1.1-1.8 1.8 1.1 1.1c-.2.8 0 1.8.6 2.4.6.6 1.5.8 2.4.6z"/><path d="M25.1 158.6l2.8-2.8-2.7-2.7-2.8 2.8c-2-1.5-4.5-2.5-7.2-2.8v-2.6h1.3V148h-5.1v2.5h1.3v2.6C5.6 153.8 0 159.8 0 167c0 7.7 6.2 14 14 14 7.7 0 14-6.3 14-14-.1-3.1-1.1-6-2.9-8.4zM14 178.5c-6.3 0-11.4-5.1-11.4-11.4 0-6.3 5.1-11.4 11.4-11.4 6.3 0 11.4 5.1 11.4 11.4 0 6.2-5.1 11.4-11.4 11.4z"/></g><path fill="none" d="M45.9 202.5zM41.4 202.5h3.3z"/><path fill="#4859A7" d="M45.9 202.5zM45.9 188.6z"/><g fill="none" stroke="#646565" stroke-width="1.3"><path d="M133.475 149.926c-6.5 10-2.4 26.3 9.8 29.9M133.475 149.926c12.8 1.1 19.3 15.9 16.3 26.9M133.275 149.926l13.5 28.8M126.275 156.526c6.6 3.5 15-1.1 17.7-7.4M124.475 163.526c9.8 3.1 21.7-1.7 25.9-11M125.675 171.226c11 2.6 24.5-2.1 28.9-12.9"/><path d="M155.875 164.326c.1 8.8-6.9 15.9-15.6 16-8.8.1-15.9-6.9-16-15.7-.1-8.8 6.9-15.9 15.6-16 8.7-.1 15.8 6.8 16 15.5v.2zM130.075 176.926c9.8 3.4 22.1-1.6 25.8-11.3"/></g><path fill-rule="evenodd" clip-rule="evenodd" fill="#F4F7FA" d="M92 188h20v13.9H92V188z"/><path fill="#4859A7" d="M104.1 194.8l-.1-.2c0-.1-.1-.2-.1-.3v-.3c0-.1-.1-.2-.1-.2l-.2-.1c-.1 0-.2-.1-.2-.2l-.1-.2c0-.1-.1-.1-.2-.1h-.3c-.1 0-.2 0-.3-.1l-.2-.1h-.3l-.2.1c-.1 0-.2.1-.3.1h-.3c-.1 0-.2.1-.2.1l-.1.2c0 .1-.1.2-.2.2l-.2.1c-.1 0-.1.1-.1.2v.3c0 .1 0 .2-.1.3l-.1.2v.3l.1.2c0 .1.1.2.1.3v.3c0 .1.1.2.1.2l.2.1c.1 0 .2.1.2.2l.1.2c0 .1.2.1.2.1h.3c.1 0 .2 0 .3.1l.2.1h.3l.2-.1c.1 0 .2-.1.3-.1h.3c.1 0 .2-.1.2-.1l.1-.2c0-.1.1-.2.2-.2l.2-.1c.1 0 .1-.1.1-.2v-.3c0-.1 0-.2.1-.3l.1-.2c.1-.1.1-.2 0-.3zm-.8.2l-.1.1v.4c0 .1 0 .1-.1.1l-.1.1-.1.1-.1.1-.1.1h-.4l-.1.1h-.2l-.1-.1h-.4c-.1 0-.1 0-.1-.1l-.1-.1-.1-.1-.1-.1-.1-.1v-.2-.2l-.1-.1v-.2l.1-.1v-.4c0-.1 0-.1.1-.1l.1-.1.1-.1.1-.1.1-.1h.4l.1-.1h.2l.1.1h.4c.1 0 .1 0 .1.1l.1.1.1.1.1.1.1.1v.4l.1.1v.2z"/><path fill-rule="evenodd" clip-rule="evenodd" fill="#57A863" d="M92 197.3h20v4.7H92v-4.7z"/><path fill-rule="evenodd" clip-rule="evenodd" fill="#F36E53" d="M92.1 188H112v4.6H92.1V188z"/><path fill-rule="evenodd" clip-rule="evenodd" fill="#59BB63" d="M134 188v14h-20v-14h20z"/><path fill-rule="evenodd" clip-rule="evenodd" fill="#F6D660" d="M115.9 195l8.1-6.3 8.1 6.3-8.1 6.3-8.1-6.3z"/><path fill-rule="evenodd" clip-rule="evenodd" fill="#4859A7" d="M124 190.8c2.3 0 4.2 1.9 4.2 4.2s-1.9 4.2-4.2 4.2c-2.3 0-4.2-1.9-4.2-4.2s1.9-4.2 4.2-4.2z"/><path fill="#FFF" d="M127.7 196.7c.1-.2.2-.5.3-.8-.9-2-2.8-3.4-5.2-3.4-1 0-1.8.2-2.6.7-.1.2-.2.4-.2.6.8-.4 1.6-.6 2.5-.6 2.4 0 4.4 1.5 5.2 3.5z"/><path fill-rule="evenodd" clip-rule="evenodd" fill="#ED5665" d="M156 188v14h-20v-14h20z"/><path fill="#FFF" d="M144.7 193.7c-.1-.3-.2-.7-.2-.9v-.6c0-.2.1-.4.1-.7.2-.6.7-1 1.2-1.1.4-.1.7 0 1 .2.3.1.5.4.6.5h-.1s-.1 0-.1-.1c-.1 0-.2-.1-.3 0-.1 0-.1.1-.1.1v.2c0 .1 0 .2.1.4 0 0 0 .1.1.1.1.1.2.2.2.3.1.2.1.3.1.4v.2c0 .2-.1.8-.6 1.1-.1.1-.2.1-.3.2-.2.1-.3.2-.4.4-.1.1 0 .2 0 .3 0 .2.1.4.1.5v.1l-.1-.1c-.1-.1-.2-.3-.2-.5-.1-.2-.1-.4-.1-.6 0-.3.1-.5.1-.7.1-.2.1-.3.1-.3h-.1c0 .1-.1.2-.1.4-.1.2-.1.4-.1.7 0 .2 0 .4.1.6.1.2.2.4.3.5v.1s-.3-.1-.6-.5c-.3-.5-.6-.9-.7-1.2"/><path fill="#ED5665" d="M145.9 192.2v.4l.3.1-.3.1v.3l-.2-.2-.3.1.2-.3-.2-.2h.3z"/><path fill="#FFF" d="M144.1 196.1h-.9c-.2 0-.5-.1-.6-.2l-.6-.3c-.5-.3-.8-1-.8-1.5 0-.4.2-.7.4-1 .2-.2.6-.4.6-.4s0 .1-.1.1l-.1.1c-.1.1-.1.2-.1.3 0 .1.1.1.1.2 0 0 .1.1.2.1s.2.1.4 0h.2c.1 0 .3-.1.4-.1H143.8c.2 0 .7.3.9.8 0 .1.1.2.1.4s.1.3.2.5c.1.1.2.1.3.1.2.1.4 0 .5 0h.1-.1c-.1.1-.3.1-.6.1-.2 0-.4 0-.6-.1-.3-.1-.5-.2-.6-.3-.2-.1-.2-.1-.3-.2v.1c0 .1.2.1.4.2s.3.2.6.3c.2 0 .4.1.6.1.2 0 .4-.1.5-.1h.1s-.2.2-.7.4c-.3.2-.8.3-1.1.4"/><path fill="#ED5665" d="M143.1 194.5l.3.1.2-.3v.4h.3l-.3.2v.3l-.2-.2-.3.1.2-.3z"/><path fill="#FFF" d="M147.1 193.6c.3-.2.6-.4.7-.5.2-.1.5-.2.6-.2.2-.1.4-.1.7-.1.6 0 1.2.3 1.5.7.2.3.2.7.2 1 0 .3-.2.6-.3.7v-.1-.1c0-.1 0-.2-.1-.3-.1-.1-.1-.1-.2-.1h-.2c-.1 0-.2.1-.3.2l-.1.1-.3.3c-.1.1-.3.2-.3.2l-.2.1c-.2.1-.8.1-1.2-.2-.1-.1-.2-.1-.3-.2-.1-.1-.3-.2-.5-.3-.1 0-.2 0-.3.1-.2.1-.4.2-.4.3l-.1.1v-.2c.1-.1.2-.3.4-.4.1-.1.3-.2.5-.3.3-.1.5-.1.7-.1h.3v-.1h-.4c-.2 0-.4 0-.6.1-.1.1-.4.2-.5.3l-.4.4-.1.1s0-.3.3-.7c.4-.3.7-.6.9-.8"/><path fill="#ED5665" d="M148.8 194.2l-.3.2v.3l-.2-.3-.3.2.2-.3-.2-.3.3.1.2-.3v.3z"/><path fill="#FFF" d="M146.2 197.3c-.1.4-.2.7-.3.9-.1.2-.3.4-.3.5-.1.2-.3.3-.5.5-.4.4-1.2.5-1.6.3-.4-.1-.6-.4-.8-.7-.2-.3-.2-.6-.2-.7l.1.1.1.1c0 .1.2.2.2.2h.2c.1 0 .1 0 .1-.1.1-.1.1-.2.1-.4v-.2-.4c0-.2.1-.3.1-.4l.1-.1c.1-.2.5-.6 1.1-.6h.4c.2 0 .4 0 .5-.1.1-.1.2-.2.2-.3.1-.2.2-.4.2-.5v-.1.1c0 .1 0 .4-.1.6 0 .2-.1.4-.2.5-.2.2-.3.4-.5.5-.2.2-.2.2-.3.2.1 0 .2-.1.3-.3.1-.1.3-.3.4-.5.1-.1.2-.4.2-.5 0-.2.1-.4.1-.6v-.1s.1.2.2.8c.2.5.2 1 .2 1.3"/><path fill="#ED5665" d="M144.4 197.9l.2-.3-.3-.3.4.1.1-.3.1.3.3.1-.3.1v.4l-.2-.3z"/><path fill="#FFF" d="M147.9 195.8c.3.2.6.4.7.6.2.2.3.4.4.5.1.2.2.4.3.7.2.5 0 1.3-.3 1.6-.3.3-.6.4-.9.5-.3 0-.7 0-.7-.1h.2c.1 0 .2-.1.2-.1v-.2c0-.1 0-.1-.1-.2s-.1-.2-.3-.3l-.1-.1c-.1 0-.3-.1-.4-.2-.2-.1-.3-.2-.3-.3l-.1-.1c-.1-.2-.3-.7-.1-1.2 0-.1.1-.2.1-.3.1-.2.1-.3.1-.5 0-.1-.1-.2-.2-.3-.1-.2-.3-.3-.4-.4h-.1.2c.1 0 .3.2.5.3l.4.4c.2.2.2.5.3.6.1.2.1.3.1.3 0-.1 0-.2-.1-.4s-.1-.4-.3-.6l-.4-.4c-.2-.1-.4-.2-.5-.3h-.1s.3 0 .8.1.9.3 1.1.4"/><path fill="#ED5665" d="M147.8 197.7l-.2-.2-.3.1.2-.3-.2-.3.3.1.2-.3v.4l.3.1-.3.1z"/><circle fill="#5486BA" stroke="#FFF" stroke-width=".8" cx="38" cy="222.1" r="4"/><path fill="#E6493A" d="M47 217.6c-2.5-5-8.5-7-13.4-4.5-1.5.8-2.9 1.9-3.8 3.4l4 7c-.7-2.4.6-4.9 2.9-5.6.4-.1.8-.2 1.3-.2"/><path fill="#4BB749" d="M29.7 216.4a9.99 9.99 0 0 0 2.7 13.9c1.4 1 3.1 1.5 4.8 1.7l4.2-7.2c-1.6 1.9-4.4 2.2-6.3.6-.6-.5-1.1-1.2-1.4-2"/><path fill="#F9D30D" d="M37.2 232c5.5.4 10.3-3.7 10.8-9.2.1-1.8-.2-3.6-1-5.2h-9c2.5 0 4.5 2 4.5 4.5 0 1-.3 2-1 2.8"/><path fill="#A4C439" d="M54.2 218.5c-.7 0-1.2.6-1.2 1.2v5.2c0 .7.6 1.2 1.2 1.2.7 0 1.2-.6 1.2-1.2v-5.2c.1-.7-.5-1.2-1.2-1.2m10.5-4.7l.9-1.6c0-.1 0-.2-.1-.2s-.2 0-.2.1l-.9 1.6c-.7-.3-1.6-.5-2.4-.5-.9 0-1.7.2-2.4.5l-.9-1.6c0-.1-.1-.1-.2-.1s-.1.1-.1.2l.9 1.6c-1.7.9-2.8 3.3-2.8 5.2h11c0-1.9-1.1-4.3-2.8-5.2m-5.2 2.5c-.3 0-.5-.2-.5-.5s.2-.5.5-.5.5.2.5.5c-.1.2-.3.5-.5.5m5 0c-.3 0-.5-.2-.5-.5s.2-.5.5-.5.5.2.5.5c0 .2-.2.5-.5.5m-8 3.7v6.7c0 .7.6 1.3 1.3 1.3h.9v2.7c0 .7.6 1.2 1.2 1.2.7 0 1.2-.6 1.2-1.2V228h1.7v2.7c0 .7.6 1.2 1.2 1.2.7 0 1.2-.6 1.2-1.2V228h.9c.7 0 1.3-.6 1.3-1.3V220H56.5zm14.5-.3c0-.7-.6-1.2-1.2-1.2-.7 0-1.2.6-1.2 1.2v5.2c0 .7.6 1.2 1.2 1.2.7 0 1.2-.6 1.2-1.2v-5.2z"/><path fill="#646565" d="M22.5 254.2c-.6 0-1.1.3-1.3.8h-2.8l-2.2-4.5-1.7 6.3-1.2-12.7-1.5-.1-2.9 11H4v1.5h6l2.1-7.9 1.1 12.6 1.5.1 1.8-6.5.8 1.7h3.8c.3.5.8.8 1.3.8.8 0 1.5-.7 1.5-1.5.1-.9-.6-1.6-1.4-1.6z"/><path fill-rule="evenodd" clip-rule="evenodd" fill="#646565" d="M32 244h20v14H32z"/><path fill="#FFF" d="M45.4 251l-5.5 3.2V248z"/><path fill-rule="evenodd" clip-rule="evenodd" fill="#646565" d="M74.2 263.7h-8.3l-5.9-5.9v-8.3l5.9-5.5h8.3l5.8 5.5v8.3z"/><path fill="#FFF" d="M66.2 256l.5 1.5h1.5l-2.6-7.2h-1.1l-2.7 7.2h1.4l.6-1.5h2.4zm-.3-1.1h-1.7l.8-2.5.9 2.5zM70 254.4h.2c.7 0 1.4 0 1.4.9s-.6 1-1.4 1H70v-1.9zm-1.3 3.1h2.1c1.3 0 2.2-.6 2.2-2 0-.8-.4-1.6-1.2-1.7.4-.3.6-.9.6-1.4 0-1.4-.8-1.9-2.1-1.9h-1.7v7zm1.3-5.9h.2c.6 0 1 .2 1 .9s-.3.9-1 .9H70v-1.8zM75.1 254.8h.7c1.4 0 2.2-.7 2.2-2.2 0-1.6-1-2.2-2.4-2.2h-1.9v7h1.4v-2.6zm0-3.2h.2c.8 0 1.3.1 1.3 1s-.4 1.1-1.2 1.1h-.3v-2.1z"/><path fill="#646565" d="M90.9 252.7l-2.1 2.1-1.4-1.4-1.4 1.4 2.1 2.1c.7.7 1.4 0 1.4 0l.7.7-1.8 1.8c-.6.6-.6 1.5 0 2.1.6.6 1.5.6 2.1 0l9-9c1.7.8 3.7.5 5.1-.9 1.8-1.8 1.8-4.6 0-6.3-1.8-1.8-4.6-1.7-6.3 0-1.4 1.4-1.7 3.4-.9 5.1l-3.7 3.7-.7-.7s.7-.7 0-1.4l-2.1-2.1-1.4 1.4 1.4 1.4zm11.7-3.2c-.6.6-1.5.6-2.1 0-.6-.6-.6-1.5 0-2.1.6-.6 1.5-.6 2.1 0 .6.6.6 1.6 0 2.1z"/><path fill-rule="evenodd" clip-rule="evenodd" fill="#646565" d="M22.6 289.2c-1-2.7-3.5-4.8-6.5-5.5.8-1.1 2.1-1.8 3.6-1.8 2.4 0 4.3 1.9 4.3 4.2 0 1.3-.5 2.4-1.4 3.1zm-8.3-7.1v2.7c4.2.2 7.5 3.5 7.5 7.6 0 1.7-.6 3.3-1.6 4.6l-1.2 1.3c-1.4 1.1-3.1 1.8-5 1.8s-3.6-.7-5-1.8L7.7 297c-1-1.3-1.6-2.9-1.6-4.6 0-4.1 3.3-7.4 7.4-7.6v-2.7c-.4-.1-.7-.5-.7-1 0-.6.5-1.1 1.1-1.1s1.1.5 1.1 1.1c0 .4-.3.8-.7 1zm1.5 11.5h-2.2c-.4 0-.7-.3-.7-.7v-2.8c0-.4.3-.7.7-.7.4 0 .7.3.7.7v2.1h1.5c.4 0 .7.3.7.7 0 .4-.3.7-.7.7zm-10.4-4.4c-.8-.8-1.4-1.9-1.4-3.1 0-2.3 1.9-4.2 4.3-4.2 1.5 0 2.8.7 3.6 1.8-3.1.7-5.5 2.8-6.5 5.5z"/><g fill-rule="evenodd" clip-rule="evenodd"><path fill="#646565" d="M132.9 251.5c-.3.2-.6.3-1 .3s-1.7-.4-1.9-1.1c-.1.1-.2.2-.4.3-.2.1-.4.2-.6.2-.6.1-1.1-.1-1.5-.5-.4-.3-.6-.7-.7-1.1-.1-.4-.1-.8 0-1.1.1-.3.2-.6.4-.9-.1 0-.2 0-.3-.1-.2 0-.4-.1-.6-.2-.3-.1-.5-.3-.7-.4-.3-.1-1.2-2-.1-2.7.1 0 .1-.1.2-.1-2.2-.4-4.6 0-6.7 1.3-4.7 2.8-6.3 9-3.5 13.7 2.8 4.7 9 6.3 13.7 3.5 4.1-2.5 5.8-7.4 4.4-11.8-.2.3-.4.5-.7.7z"/><path fill="#FFF" d="M123.5 253.1c.7-.4 1.7-.2 2.1.5.4.7.2 1.7-.5 2.1-.7.4-1.7.2-2.1-.5-.4-.7-.2-1.7.5-2.1zM119.5 257.8c.6-.4 1.4-.2 1.8.5.4.6.2 1.4-.5 1.8-.6.4-1.4.2-1.8-.5-.4-.7-.2-1.5.5-1.8zM129.4 253.2c.5-.3 1.1-.1 1.4.4.3.5.1 1.1-.4 1.4-.5.3-1.1.1-1.4-.4-.2-.5-.1-1.1.4-1.4zM123.8 259.7c.4-.2.8-.1 1.1.3.2.4.1.8-.3 1.1-.4.2-.8.1-1.1-.3-.2-.4-.1-.9.3-1.1zM117.6 253.4c.5-.3 1.3-.1 1.6.4.3.5.1 1.3-.4 1.6-.5.3-1.3.1-1.6-.4-.3-.6-.1-1.3.4-1.6zM127.6 256.7c.6-.4 1.4-.2 1.8.5.4.6.2 1.4-.5 1.8-.6.4-1.4.2-1.8-.5-.3-.6-.1-1.4.5-1.8zM120.5 248.3c.4-.3 1-.1 1.2.3.3.4.1 1-.3 1.2-.4.3-1 .1-1.2-.3-.3-.4-.1-.9.3-1.2z"/></g><path fill="none" d="M111.75 220.597l2.263-2.263 2.263 2.263-2.263 2.263z"/><path fill="#F5A11D" d="M122.6 220.6L114 212l-8.6 8.6 8.6 8.6 8.6-8.6zm-10.8 0l2.2-2.2 2.2 2.2-2.2 2.2-2.2-2.2z"/><path fill-rule="evenodd" clip-rule="evenodd" fill="#ED5665" d="M148.8 215.3l-3.3-3.3-5.5 5.5-5.5-5.5-3.3 3.3 8.8 8.8 8.8-8.8z"/><path fill-rule="evenodd" clip-rule="evenodd" fill="#33A849" d="M96.8 220.8l-3.3 3.3-5.5-5.5-5.5 5.5-3.3-3.3L88 212l8.8 8.8z"/><path fill-rule="evenodd" clip-rule="evenodd" fill="#646565" d="M62 300v-11h2.1v-3.4c0-3 2.5-5.5 5.5-5.5h.7c3 0 5.5 2.5 5.5 5.5v3.4h2.1v11H62zm7.4-5.2l-.5 2.9H71l-.5-2.9c.5-.2.9-.7.9-1.3 0-.8-.6-1.4-1.4-1.4-.8 0-1.4.6-1.4 1.4 0 .6.3 1.1.8 1.3zm4-8.9c0-2.1-1.4-3.4-3.4-3.4-2.1 0-3.4 1.4-3.4 3.4v3.1h6.9v-3.1z"/><path fill="#646565" d="M42 280c-5.5 0-10 4.5-10 10 0 1 .2 2 .4 2.9v.1h19.2c.3-.9.4-1.9.4-3 0-5.5-4.5-10-10-10zm8.2 11.3h-3.8c-.3-.9-.9-1.7-1.7-2.3l2.9-2.9c.3-.3.3-.8 0-1l-.1-.1c-.3-.3-.8-.3-1 0l-3.3 3.3c-.4-.1-.8-.2-1.3-.2-2.1 0-3.8 1.3-4.5 3.2h-3.8c-.1-.4-.1-.9-.1-1.3 0-4.6 3.7-8.4 8.4-8.4 4.6 0 8.4 3.7 8.4 8.4.1.4 0 .9-.1 1.3zM107 280H87v3.6l8.2 7.5v4.5h3.6v-4.5l8.2-7.5zM154.5 244h-11.1c-.8 0-1.5.5-1.5 1.1V264l7-4.5 7 4.5v-18.9c.1-.6-.6-1.1-1.4-1.1z"/><path fill="none" d="M34.3 188h10.5-17.6v.1z"/><path fill-rule="evenodd" clip-rule="evenodd" fill="#4859A7" d="M46.2 188v14h-20v-14h20z"/><path fill="#FFF" d="M46.2 188H45l-7.1 4.6V188h-3.3v4.6l-7.1-4.5-.1-.1h-1.2v1.9l5.4 3.4h-5.4v3.3h5.4l-5.4 3.5V202h1.2l7.2-4.6v4.6h3.3v-4.6L45 202h1.2V200.1l-5.4-3.4h5.4v-3.4h-5.4l5.4-3.4z"/><path fill="#ED5665" d="M46.2 193.9h-7.4l7.4-4.8V188l-8.8 5.7V188H35v5.7l-8.8-5.7v1.1l7.4 4.8h-7.4v2.2h7.4l-7.4 4.8v1.1l5.1-3.3 3.7-2.4v5.7h2.4v-5.7l8.8 5.7v-1.1l-7.4-4.8h7.4z"/><path fill-rule="evenodd" clip-rule="evenodd" fill="#4859A7" d="M68 188v14H48v-14h20z"/><path fill="#FFF" d="M58 188h-.5l-3.6 2.4V188h-1.7v2.4l-3.6-2.4H48v1l2.7 1.8H48v1.7h2.7l-2.7 1.7v1h.6l3.6-2.4v2.4h1.7v-2.3l3.6 2.3h.5l.1-.5v-.4l-2.8-1.8h2.8v-1.7h-2.8l2.8-1.8z"/><path fill="#ED5665" d="M58.1 191h-3.8l3.8-2.4v-.6H58l-4.3 2.9V188h-1.3v2.9L48 188v.6l3.7 2.4H48v1.2h3.7l-3.7 2.4v.6l2.6-1.7 1.8-1.2v2.9h1.3v-2.9l4.3 2.9h.1v-.5l-3.8-2.5h3.8z"/><path fill="#FFF" d="M62.3 189l.3.9h1l-.8.6.3.9-.8-.5-.7.5.2-.9-.7-.6h.9zM66 190.7l.3.9h1l-.8.6.3.9-.8-.6-.7.6.2-.9-.7-.6h.9zM60.3 193l.3.9h1l-.8.6.3.9-.8-.5-.8.5.3-.9-.7-.6h.9zM62.3 197.7l.3.9h1l-.8.5.3.9-.8-.5-.7.5.2-.9-.7-.5h.9zM64 194.7l.2.6h.6l-.5.3.2.6-.5-.3-.5.3.2-.6-.5-.3h.6zM53 196.8l.5 1.4 1.5.1-1.2.9.5 1.4-1.3-.8-1.2.8.4-1.4-1.2-.9 1.6-.1z"/><g fill-rule="evenodd" clip-rule="evenodd"><path fill="#F4F7FA" d="M70 188.1h20V202H70v-13.9z"/><path fill="#EB5665" d="M70 200.2h20v1.8H70v-1.8zM70 197.2h20v1.7H70v-1.7zM70 194.1h20v1.7H70v-1.7zM70.1 188H90v1.8H70.1V188zM70.1 191.1H90v1.8H70.1v-1.8z"/><path fill="#4759A7" d="M70 188h8.7v7.9H70V188z"/></g><path fill="#FFF" d="M71.5 188.5l.2.5h.5l-.4.3.1.6-.4-.3-.5.3.2-.6-.5-.3h.6zM73.3 188.5l.2.5h.6l-.5.3.2.6-.5-.3-.4.3.1-.6-.4-.3h.6zM75.2 188.5l.2.5h.6l-.5.3.2.6-.5-.3-.5.3.2-.6-.4-.3h.5zM77.1 188.5l.2.5h.5l-.4.3.1.6-.4-.3-.5.3.2-.6-.5-.3h.6zM72.3 189.8l.2.5h.6l-.5.4.2.5-.5-.3-.5.3.2-.5-.4-.4h.5zM74.1 189.8l.2.5h.6l-.5.4.2.5-.5-.3-.4.3.1-.5-.4-.4h.6zM76 189.8l.2.5h.6l-.5.4.2.5-.5-.3-.5.3.2-.5-.4-.4h.5zM71.5 191.1l.2.6h.5l-.4.3.1.6-.4-.4-.5.4.2-.6-.5-.3h.6zM73.3 191.1l.2.6h.6l-.5.3.2.6-.5-.4-.4.4.1-.6-.4-.3h.6zM75.2 191.1l.2.6h.6l-.5.3.2.6-.5-.4-.5.4.2-.6-.4-.3h.5zM77.1 191.1l.2.6h.5l-.4.3.1.6-.4-.4-.5.4.2-.6-.5-.3h.6zM72.3 192.5l.2.5h.6l-.5.4.2.5-.5-.3-.5.3.2-.5-.4-.4h.5zM74.1 192.5l.2.5h.6l-.5.4.2.5-.5-.3-.4.3.1-.5-.4-.4h.6zM76 192.5l.2.5h.6l-.5.4.2.5-.5-.3-.5.3.2-.5-.4-.4h.5zM71.5 193.8l.2.6h.5l-.4.3.1.5-.4-.3-.5.3.2-.5-.5-.3h.6zM73.3 193.8l.2.6h.6l-.5.3.2.5-.5-.3-.4.3.1-.5-.4-.3h.6zM75.2 193.8l.2.6h.6l-.5.3.2.5-.5-.3-.5.3.2-.5-.4-.3h.5zM77.1 193.8l.2.6h.5l-.4.3.1.5-.4-.3-.5.3.2-.5-.5-.3h.6z"/><g fill-rule="evenodd" clip-rule="evenodd"><path fill="#F5F7FA" d="M4 188h20v14H4v-14z"/><path fill="#ED5665" d="M4 188h5v14H4v-14zM19 188h5v14h-5v-14z"/></g><path fill="#ED5665" d="M14 190.6l-.7 1.3c-.1.1-.2.1-.4 0l-.5-.3.4 2c.1.4-.2.4-.3.2l-.9-1-.1.5c0 .1-.1.1-.2.1l-1.1-.2.3 1.1c.1.2.1.3-.1.4l-.4.3 1.9 1.6c.1.1.1.2.1.3l-.2.6c.7-.1 1.3-.2 1.9-.3.1 0 .2.1.2.2l-.1 2h.3l-.1-2c0-.1.1-.2.1-.2.7.1 1.3.2 1.9.3l-.2-.6c0-.1 0-.2.1-.3L18 195l-.4-.2c-.2-.1-.1-.2-.1-.4l.3-1.1-1.1.2c-.1 0-.2-.1-.2-.1l-.1-.5-.9 1c-.1.2-.4.2-.3-.2l.4-2-.5.3c-.1.1-.3.1-.4 0"/><linearGradient id="l" gradientUnits="userSpaceOnUse" x1="29.141" y1="722.578" x2="28.258" y2="720.316" gradientTransform="translate(-22.535 -505.558)"><stop offset=".011" stop-color="#952122"/><stop offset=".472" stop-color="#e36226"/><stop offset="1" stop-color="#efbb62"/></linearGradient><path fill="url(#l)" d="M6.7 214.9c-.1 0-.1.1 0 0-.2-.2-.3-.7-.3-1 0 0-.2.1-.4.7 0 .1-.1.1-.1.2v-.1c0 .1-.1.2-.1.3 0 .1-.1.1-.1.3v-.1c-.2.6-.4 1.3-.3 2.4.9-.9 2.3-1.5 2.3-1.5-.2-.2-.7-.6-1-1.2z"/><linearGradient id="m" gradientUnits="userSpaceOnUse" x1="1083.539" y1="-414.464" x2="1083.539" y2="-405.24" gradientTransform="rotate(14.693 -1909.242 -4276.9)"><stop offset=".056" stop-color="#dc7327"/><stop offset="1" stop-color="#edbc89"/></linearGradient><path fill="url(#m)" d="M4.2 223.5c0-.2.4-3.4 1.9-4.5 1.3-.9.3-.6-.2-.6s-.8.4-.7.2c-.1.1-1.3 1.1-1 4.9z"/><linearGradient id="n" gradientUnits="userSpaceOnUse" x1="-41.988" y1="590.627" x2="-45.107" y2="595.706" gradientTransform="matrix(.9897 -.0801 .0949 1.1727 -8.39 -478.063)"><stop offset=".056" stop-color="#dc7327"/><stop offset="1" stop-color="#edbd6b"/></linearGradient><path fill="url(#n)" d="M4 221s.9-2.8 2.6-2.8c1.2 0 .2-1-.1-1.1-.3-.1-.4-.1-.5 0-.1.1-1.3 0-2 3.9z"/><radialGradient id="o" cx="42.438" cy="719.021" r="3.629" gradientTransform="translate(-22.535 -505.558)" gradientUnits="userSpaceOnUse"><stop offset=".257" stop-color="#ffe300"/><stop offset=".336" stop-color="#fbd802"/><stop offset=".47" stop-color="#f8ca21"/><stop offset=".643" stop-color="#eda525"/><stop offset=".847" stop-color="#e27b28"/><stop offset="1" stop-color="#de5b26"/></radialGradient><path fill="url(#o)" d="M20.2 214s.8.4 1.4 1.3c.4.7.2 1.7-.2 1.5-.4-.2-1.2-2.8-1.2-2.8z"/><path fill="#C44028" d="M21.7 216.9c.2-1.8-1.4-2.8-1.4-2.8s.1.6.2 2c.1 1.5 1.1 1.6 1.2.8zM16.1 230.7c3 .6 5.3-1.9 3.7-2.5-1.6-.6-5.2 2.2-3.7 2.5z"/><path fill="#C44028" d="M20 228.2c3-.7 4.1-3.9 2.3-3.8-1.6.1-3.7 4.1-2.3 3.8zM22.7 223.1c2-1.4 1-4 1-4s-.4 1.3-.8 2.9c-.4 1.6-1.4 2-.2 1.1zM23.3 218.7c-.2-2.5-1.7-3.7-1.7-3.7s.2.8.4 2c.2 1.5 1.4 3.1 1.3 1.7z"/><path fill="#2383C2" d="M14 231.2c5.3 0 9.6-4.3 9.6-9.6S19.3 212 14 212s-9.6 4.3-9.6 9.6 4.3 9.6 9.6 9.6z"/><linearGradient id="p" gradientUnits="userSpaceOnUse" x1="35.367" y1="727.025" x2="39.872" y2="733.206" gradientTransform="translate(-22.535 -505.558)"><stop offset="0" stop-color="#1d4170"/><stop offset="1" stop-color="#151829"/></linearGradient><path fill="url(#p)" d="M14.1 223.6c-.1.1 0 .2.1.2h.2s.1.1 0 .1-.2 0 0 .1.3.1.3 0l.1-.2c0-.1-.1-.1 0-.2s0-.2 0-.2-.1 0-.2.1c0 .1-.1 0-.2 0v.1-.1c-.1.1-.3.1-.3.1z"/><defs><circle id="q" cx="14.1" cy="221.6" r="9.6"/></defs><path fill="#E78926" d="M21.2 227.3c.6-1 1.3-1.6 1.7-2.4.5-1 1.5-3.6.8-5.8.4 1.4.2 2.7-.9 3.4.4-1 .6-3 .2-4.9-.2-1.2-1-2.3-1.5-2.7.5.3.8 1.6.8 2.1-1-1.6-2.5-3.2-4.9-3.8 1.8 1.2 2.5 2.2 3 3.2-.5-.5-1.3-1-1.9-1.1.9.6 2.3 2.5 2.1 5.4-.2-.5-.6-1.2-.9-1.4.3 2.8 0 3.4-.1 4.1 0-.3-.2-.6-.2-.8 0 0 0 .9-.6 2.1-.4.9-.9 1.2-1.1 1.2h-.1v-.3s-.2.1-.3.2c0 .1-.1.1-.2.2l.1-.2-.2.2c-.3.3-.5.6-.7.5.1 0 .2-.2.2-.3-.1.1-.4.3-1 .4-.3 0-1.3.2-2.8-.5.2 0 .5-.1.8 0-.2-.3-.8-.2-1.2-.3-.4-.1-.8-.6-1.1-.9 1.1.3 2.3.1 3-.4.7-.5 1.1-.8 1.5-.7.4.1.6-.3.3-.6s-1-.8-1.9-.5c-.7.2-1.3.8-2.3.4-.1 0-.1-.1-.2-.1h.1c-.2-.1-.5-.2-.6-.3h.1c-1-.6-.9-1-.9-1.3 0-.2.1-.5.4-.7.1.1.2.1.2.1l-.1-.1c.1 0 .4.1.5.2.2.1.2.2.2.2v-.1l-.2-.2c.1 0 .2.1.3.1 0-.2.1-.3.1-.6 0-.2 0-.2-.1-.3 0-.1 0-.1.1 0 0-.1 0-.1-.1-.1.1-.2 1.5-1 1.6-1.1.1-.1.3-.3.4-.5.1-.1.1-.3.1-.6 0-.2-.1-.3-1.7-.3-.4 0-.7-.2-.9-.5 0-.1-.1-.1-.1-.1 0-.1-.1-.1-.1-.2.2-.7.6-1.2 1.1-1.7h-.1l.3-.2c.1 0-.3-.1-.5-.1-.3.1-.3.1-.5.2.1-.1.2-.2.2-.1-.3.1-.7.3-1 .5v-.1c-.1.1-.5.3-.6.5v-.1l-.3.3c-.9-.2-1.7-.2-2.3 0-.2-.1-.4-.3-.8-.9 0 0 0 .1 0 0-.2-.3-.3-.7-.3-1.1 0 0-.2.1-.4.7 0 .1-.1.1-.1.2v-.1c0 .1-.1.2-.1.3 0 .1-.1.1-.1.2v-.1c-.1.2-.1.4-.2.6-.1.4-.2.9-.1 1.6v.2c-.2.3-.4.6-.5.8-.3.6-.6 1.5-.8 2.8 0 0 .2-.5.5-1.1-.2.7-.4 1.9-.3 3.6 0-.1.1-.5.2-1.1.1 1.1.3 2.5 1.2 4.1.7 1.2 2.5 3.9 7 4.9-.5-.1-.8-.4-.8-.4s1.7.5 2.9.5c-.4-.1-.5-.2-.5-.2s4.4.2 5.9-1.8c-.5.6-1.8.8-2.3.8.7-.7 2.4-.7 4.2-2.4 1-1 1.1-1.7 1.2-2.4 0 .7-.9 1.3-1.8 1.8z"/><path fill="#C44029" d="M13.7 217.7c0-.2-.1-.3-1.7-.3-.6 0-.9-.5-1-.8-.2.6-.2 1.2-.1 1.9.1.5.4.9.6 1.2 0 0 .1.1.1 0 .1-.1 1.4-.9 1.5-1 .2-.1.6-.5.6-1z"/><path fill="#F8CE14" d="M23.7 219.2c.7 2.2-.4 3.1-.9 3.4.6-1.6.8-3.6.2-5.4-.5-1.5-1.4-2.2-1.4-2.2 1.3 1.4 1.1 3 .8 4 .2 1-.4 3.9.3 3.8-.2 1.6-.9 3.6-1.2 4.1.5-.8 1.2-1.6 1.6-2.2.6-1.2 1.3-3.5.6-5.5z"/><path fill="#C44029" d="M6.7 214.9c-.1 0-.1.1 0 0-.2-.2-.3-.7-.3-1 0 0-.2.1-.4.7 0 .1-.1.1-.1.2v-.1c0 .1-.1.2-.1.3 0 .1-.1.1-.1.3v-.1c-.4 1-.4 2.5-.3 2.4.9-1.2 2.1-1.6 2.1-1.6-.2-.3-.5-.5-.8-1.1z"/><path fill="#FFF" d="M13.3 218.6c.1-.1.4-.3.4-.6h-.1l-.6.6c.1-.1.2-.2.3-.2-.3.2-.7.4-1 .3 0 0 .2 0 .5-.2-.2.1-.6.1-.7.1l.4-.1c-.2-.1-.5 0-.5 0-.1.1-.2.1-.3.2 0-.1.1-.1.1-.2-.1.1-.4.3-.4.3s.4-.3.3-.3c0 0-.2.1-.3.2l.2-.2c-.4.1-.3.3-.4.3v.1c0 .1.2.4.4.6.1.1.1.3.2.2-.1-.2 1.4-1 1.5-1.1z"/><linearGradient id="r" gradientUnits="userSpaceOnUse" x1="35.352" y1="724.189" x2="36.497" y2="722.426" gradientTransform="translate(-22.535 -505.558)"><stop offset="0" stop-color="#38383a"/><stop offset=".651" stop-color="#7c403e"/><stop offset="1" stop-color="#de5b26"/></linearGradient><path fill="url(#r)" d="M13.7 218.1c.1-.2.1-.6-.1-.7-.2 0-.4-.1-.7-.1.1 0 .4.1.5.2.1.3 0 .8 0 .9.2 0 .3-.1.3-.3z"/><path fill="#C44029" d="M11.2 225c1.1.3 2.3.1 3-.4.5-.3 1.1-.8 1.4-.7-.3-.1-.6-.1-.9-.1h-.5c-.2 0-.4.2-.6.2l.2-.1c-.1 0-.2 0-.3.1h-.2c-2.1.4-4.1-.8-4.1-.8-.1.6.8 1.5 2 1.8z"/><g fill="#FFF"><path d="M15.6 349.5c-.9.7-2 1-3.2 1H11.8c-.1 0-.2 0-.3-.1h-.2c-.1 0-.2-.1-.3-.1-.1 0-.1 0-.2-.1-.1 0-.2-.1-.4-.1h-.1c-.1-.1-.3-.1-.4-.2-.5-.2-.9-.6-1.2-.9-.1-.1-.2-.2-.3-.4 0 0 0-.1-.1-.1-.7-.9-1.2-2.1-1.2-3.4h1.4l-2.3-3.4-2.2 3.4h1.4c0 1.5.5 2.9 1.3 4l.3.3.1.1c.1.2.3.3.4.4.5.5 1 .9 1.6 1.2.2.1.3.2.5.2 0 0 .1 0 .1.1.1.1.3.1.5.2.1 0 .1.1.2.1s.3.1.4.1c.1 0 .2 0 .3.1h.1c.1 0 .3 0 .4.1H12.4c1.4 0 2.8-.4 4-1.3.4-.3.5-.8.2-1.2-.1-.2-.6-.3-1 0zM19.6 345.1c0-1.5-.5-2.9-1.2-4v-.1c-.1-.1-.2-.3-.3-.4-.7-.9-1.6-1.5-2.6-2h-.1c-.2-.1-.3-.1-.5-.2-.1 0-.1 0-.2-.1-.1 0-.3-.1-.4-.1-.1 0-.2 0-.2-.1H12.9h-.1c-1.4 0-2.8.4-4 1.3-.4.3-.5.8-.2 1.2.3.4.8.5 1.2.2.9-.7 2-1 3.1-1h.6c.1 0 .3 0 .4.1h.2c.1 0 .2.1.4.1h.1c.1 0 .3.1.4.1.8.3 1.5.9 2 1.5.8.9 1.2 2.1 1.2 3.4h-1.4l2.3 3.4 2.3-3.4h-1.8z"/></g><path fill-rule="evenodd" clip-rule="evenodd" fill="#FFF" d="M47.6 348.2h-.9c-.1.5-.4 1-.6 1.5l1.8 1.8-1 1-.5.5-1 1-1.8-1.8c-.5.3-1 .5-1.5.6v2.3H38.6v-2.3c-.5-.1-1-.3-1.5-.6l-1.8 1.8-1-1-.5-.5-.9-1 1.8-1.8c-.3-.5-.5-1-.6-1.5h-2.3v-3.4h2.3c.1-.5.3-1 .6-1.5l-1.7-1.8.9-1 .5-.5 1-1 1.8 1.8c.5-.3 1-.5 1.5-.6V338H42.2v2.3c.5.1 1.1.4 1.5.6l1.8-1.8 1 1 .5.5 1 1-1.8 1.7c.3.5.5 1 .6 1.5h2.3v3.4h-1.5zm-7.1-5.1c-2.1 0-3.4 1.4-3.4 3.4 0 2.1 1.4 3.4 3.4 3.4 2.1 0 3.4-1.4 3.4-3.4s-1.3-3.4-3.4-3.4z"/><g fill="#FFF"><path d="M62 340.8h12.2V355H62z"/><path d="M63.9 338v1.8h11.3l-.1 12.4h2V338z"/></g><path fill="#FFF" d="M105.5 348.2c-.6 0-1.1.3-1.3.8h-2.8l-2.2-4.5-1.7 6.3-1.2-12.7-1.5-.1-2.9 11H87v1.5h6l2.1-7.9 1.1 12.6 1.5.1 1.8-6.5.8 1.7h3.8c.3.5.8.8 1.3.8.8 0 1.5-.7 1.5-1.5.1-.9-.6-1.6-1.4-1.6z"/><path fill-rule="evenodd" clip-rule="evenodd" fill="#FFF" d="M132.6 347.2c-1-2.7-3.5-4.8-6.5-5.5.8-1.1 2.1-1.8 3.6-1.8 2.4 0 4.3 1.9 4.3 4.2 0 1.3-.5 2.4-1.4 3.1zm-8.3-7.1v2.7c4.2.2 7.5 3.5 7.5 7.6 0 1.7-.6 3.3-1.6 4.6l-1.2 1.3c-1.4 1.1-3.1 1.8-5 1.8s-3.6-.7-5-1.8l-1.2-1.3c-1-1.3-1.6-2.9-1.6-4.6 0-4.1 3.3-7.4 7.4-7.6v-2.7c-.4-.1-.7-.5-.7-1 0-.6.5-1.1 1.1-1.1s1.1.5 1.1 1.1c-.1.4-.4.8-.8 1zm1.5 11.5h-2.2c-.4 0-.7-.3-.7-.7v-2.8c0-.4.3-.7.7-.7.4 0 .7.3.7.7v2.1h1.5c.4 0 .7.3.7.7 0 .4-.3.7-.7.7zm-10.4-4.4c-.8-.8-1.4-1.9-1.4-3.1 0-2.3 1.9-4.2 4.3-4.2 1.5 0 2.8.7 3.6 1.8-3.1.7-5.5 2.8-6.5 5.5zM156 343h-5v-5h-4v5h-5v4h5v5h4v-5h5zM49.8 387.7l-9.8-9.8 9.8-9.8 2.2 2.2-7.6 7.6 7.6 7.6-2.2 2.2zM64 385.4l7.6-7.6-7.6-7.6 2.2-2.2 9.8 9.8-9.8 9.8-2.2-2.2z"/><g fill-rule="evenodd" clip-rule="evenodd"><path opacity=".5" fill="#010101" d="M125 280h2v5h-2zM136 280h2v5h-2z"/><g fill="#646565"><path d="M143 283h-5v2h-2v-2h-9v2h-2v-2h-5v3h23zM120 305h23v-18h-23v18zm17-16h4v4h-4v-4zm0 5h4v4h-4v-4zm0 5h4v4h-4v-4zm-5-10h4v4h-4v-4zm0 5h4v4h-4v-4zm0 5h4v4h-4v-4zm-5-10h4v4h-4v-4zm0 5h4v4h-4v-4zm0 5h4v4h-4v-4zm-5-10h4v4h-4v-4zm0 5h4v4h-4v-4zm0 5h4v4h-4v-4z"/></g></g><path fill-rule="evenodd" clip-rule="evenodd" fill="#646565" d="M10.5 325.1L4 318.6l6.5-6.6 1.5 1.5-5 5.1 5 5.1-1.5 1.4zM22 323.6l5-5.1-5-5.1 1.5-1.5 6.5 6.6-6.5 6.6-1.5-1.5z"/><g fill="#FFF"><path d="M90 382.2h12.8v2.8H90zM103.7 374.6h-4.5V368h-4.8v6.6H90v.1l6.7 7z"/></g><path fill="#FFF" d="M116 368v22.5h18V368h-18zm2.7 21.6h-1.8v-1.8h1.8v1.8zm0-2.7h-1.8v-1.8h1.8v1.8zm0-2.7h-1.8v-1.8h1.8v1.8zm0-2.7h-1.8v-1.8h1.8v1.8zm0-2.7h-1.8V377h1.8v1.8zm0-2.7h-1.8v-1.8h1.8v1.8zm0-2.7h-1.8v-1.8h1.8v1.8zm0-2.7h-1.8v-1.8h1.8v1.8zm11.7 18.9h-10.8v-9.9h10.8v9.9zm0-10.8h-10.8v-9.9h10.8v9.9zm2.7 10.8h-1.8v-1.8h1.8v1.8zm0-2.7h-1.8v-1.8h1.8v1.8zm0-2.7h-1.8v-1.8h1.8v1.8zm0-2.7h-1.8v-1.8h1.8v1.8zm0-2.7h-1.8V377h1.8v1.8zm0-2.7h-1.8v-1.8h1.8v1.8zm0-2.7h-1.8v-1.8h1.8v1.8zm0-2.7h-1.8v-1.8h1.8v1.8z"/><g fill="#FFF" stroke="#FFF"><circle stroke-miterlimit="10" cx="144" cy="376" r="2.7"/><circle stroke-miterlimit="10" cx="154" cy="383.3" r="2.7"/><circle stroke-miterlimit="10" cx="154" cy="368.7" r="2.7"/><path stroke-width="1.5" d="M144 376l10 7.3M144 376l10-7.3"/></g><path fill="#FFF" d="M14 382.8h1.3c.4 0 .7.1.9.4.2.2.3.6.3 1s-.1.8-.3 1c-.2.2-.5.4-.9.4h-.5v1.5H14v-4.3m.8.8v1.2h.4c.2 0 .3-.1.4-.2.1-.1.1-.2.1-.4s0-.3-.1-.4c-.1-.1-.2-.2-.4-.2h-.4m3.1 0v2.6h.3c.3 0 .6-.1.8-.3.2-.2.3-.5.3-1 0-.4-.1-.7-.3-.9-.2-.2-.4-.3-.8-.3h-.3m-.8-.9h.9c.5 0 .8 0 1.1.1.2.1.4.2.6.5.1.2.3.4.3.7.1.2.1.5.1.8 0 .3 0 .6-.1.8-.1.2-.2.5-.3.7-.2.2-.4.4-.6.5-.2.1-.6.1-1.1.1h-.9v-4.2m3.6 0h2.2v.8h-1.4v.8h1.3v.8h-1.3v1.8h-.8v-4.2"/><path fill="#FFF" d="M10.5 378.3c.6-1.2 1.3-2.5 1.8-3.8l.2-.5c-.7-2.7-1.1-4.9-.8-6.3.1-.4.5-.6 1-.6h.4c.6 0 .9.8.9 1.1.1.5-.2 1.4-.2 1.4 0-.4 0-.9-.2-1.4-.3-.6-.5-.9-.7-1-.1.1-.2.2-.3.5-.1.4-.1.9-.1 1.2 0 1 .2 2.2.6 3.5.1-.2.1-.4.2-.6.1-.3.6-2.2.6-2.2s-.1 2.5-.3 3.3c0 .2-.1.3-.1.5.6 1.7 1.6 3.2 2.8 4.3.5.4 1 .8 1.6 1.1 1.2-.2 2.3-.3 3.2-.2 1.2 0 2.1.2 2.5.6.2.2.3.4.3.6 0 .1 0 .3-.1.4 0-.1 0-.4-1-.7-.8-.2-2.2-.2-4-.1 2 1 4 1.5 4.6 1.2.2-.1.3-.3.3-.3s-.1.5-.2.6c-.1.1-.3.3-.5.3-1 .3-3.5-.3-5.8-1.6-2.5.4-5.2 1-7.4 1.8-2.2 3.8-3.8 5.5-5.1 4.9l-.5-.2c-.2-.1-.2-.4-.2-.6.2-.8 1.1-1.9 3-3 .2-.1 1.1-.6 1.1-.6l-.8.8c-1.5 1.2-2.6 2.8-2.6 3.4v.1c1.4-.5 3.3-3.1 5.8-7.9m.8.4c-.4.8-.8 1.5-1.2 2.2 2.1-.9 4.3-1.4 6.4-1.8-.3-.2-.6-.4-.8-.6-1.2-1-2.1-2.2-2.7-3.5-.4 1-.9 2.1-1.7 3.7"/><linearGradient id="s" gradientUnits="userSpaceOnUse" x1="57.195" y1="539.447" x2="87.616" y2="568.824"><stop offset=".173" stop-color="#f6aaaa"/><stop offset="1" stop-color="#d61f26"/></linearGradient><path fill="url(#s)" d="M71.2 585.7v-21.3h20.7v-8.7H71.2v-13h23.9v-8.3H62v51.2h9.2z"/><linearGradient id="t" gradientUnits="userSpaceOnUse" x1="-4.57" y1="539.203" x2="38.642" y2="580.933"><stop offset=".173" stop-color="#fbbe7b"/><stop offset="1" stop-color="#c74627"/></linearGradient><path fill="url(#t)" d="M34.1 585.7v-8.3H9.2v-13h21.6v-8.7H9.2v-13H34v-8.3H0v51.2h34.1z"/><linearGradient id="u" gradientUnits="userSpaceOnUse" x1="56.196" y1="478.824" x2="96.995" y2="518.222"><stop offset=".173" stop-color="#ffe29c"/><stop offset="1" stop-color="#c5872b"/></linearGradient><path fill="url(#u)" d="M79.7 524c7.9 0 14-2.2 18-6.5 4.1-4.3 6.1-10.7 6.1-19 0-8.4-2-14.8-6.1-19.1-4.1-4.3-10.1-6.5-18-6.5H62V524h17.7zm-8.5-42.8h8.4c5.3 0 9.2 1.3 11.5 4 2.3 2.7 3.5 7.1 3.5 13.2s-1.2 10.5-3.5 13.2c-2.3 2.7-6.2 4-11.5 4h-8.4v-34.4z"/><linearGradient id="v" gradientUnits="userSpaceOnUse" x1="5.198" y1="479.702" x2="43.816" y2="516.994"><stop offset=".173" stop-color="#f1ed9f"/><stop offset="1" stop-color="#beb131"/></linearGradient><path fill="url(#v)" d="M5.2 517.1c1.5 1.9 3.4 3.4 5.6 4.6 2.2 1.2 4.3 2 6.4 2.4 2.1.4 4.3.6 6.7.6 5.2 0 10.4-1 15.5-3.1V513c-4.9 2.2-9.8 3.4-14.7 3.4-2.3 0-4.3-.2-5.9-.6-1.6-.4-3.2-1.2-4.8-2.4-1.6-1.2-2.7-3-3.6-5.5-.8-2.5-1.2-5.6-1.2-9.4 0-3.8.4-6.9 1.2-9.4.8-2.5 2-4.3 3.6-5.5 1.6-1.2 3.2-2 4.8-2.4 1.6-.4 3.6-.6 5.9-.6 4.9 0 9.8 1.1 14.7 3.4v-8.6c-5.1-2-10.3-3-15.5-3-2.4 0-4.6.2-6.7.6-2.1.4-4.2 1.2-6.4 2.4s-4 2.7-5.6 4.6c-1.5 1.9-2.8 4.4-3.8 7.6-1 3.2-1.5 6.9-1.5 11.1 0 4.2.5 7.9 1.5 11.1 1 2.8 2.3 5.4 3.8 7.3z"/><linearGradient id="w" gradientUnits="userSpaceOnUse" x1="55.917" y1="417.475" x2="97.364" y2="457.5"><stop offset=".173" stop-color="#e1ecb8"/><stop offset="1" stop-color="#79b042"/></linearGradient><path fill="url(#w)" d="M82.3 462.4c3.1 0 5.8-.3 8.2-1 2.3-.7 4.1-1.5 5.5-2.5 1.3-1 2.4-2.2 3.2-3.7.8-1.4 1.3-2.8 1.6-4 .2-1.2.4-2.5.4-3.9 0-5.7-3-9.7-8.9-11.8 4-2.1 6.1-5.4 6.1-9.9 0-2.6-.5-4.9-1.5-6.9-1-1.9-2.4-3.4-4.1-4.5-1.7-1-3.6-1.8-5.6-2.3-2-.5-4.2-.7-6.5-.7H62v51.2h20.3zm-11.1-22.2h10.3c6.9 0 10.3 2.2 10.3 6.7 0 5-3.3 7.5-10 7.5H71.2v-14.2zm0-21h9.1c5.8 0 8.7 2.2 8.7 6.7 0 4.1-2.7 6.1-8 6.1h-9.7v-12.8z"/><linearGradient id="x" gradientUnits="userSpaceOnUse" x1="6.124" y1="427.973" x2="35.08" y2="455.936"><stop offset=".173" stop-color="#b5dbab"/><stop offset="1" stop-color="#27ab4a"/></linearGradient><path fill="url(#x)" d="M9.9 462.4l4.7-12.3h21.7l4.7 12.3h9.9l-20.4-51.2H20.4L0 462.4h9.9zm15.5-40.8l7.6 20.1H17.7l7.7-20.1z"/><g><path fill-rule="evenodd" clip-rule="evenodd" fill="#FFF" d="M80 310h20v14H80z"/><path fill="#4299D4" d="M93.4 317l-5.5 3.2V314z"/></g><g fill="#FFF"><path d="M114.6 319.4h2l.1-1.4c1.4-.3 2.3-1.5 2.3-2.9 0-1.8-1.3-3.1-3.1-3.1-1.7 0-3.1 1.4-3 3.1h2.1v-.2c0-.6.3-1.2 1-1.2s1 .7 1 1.3c0 1-.9 1.6-1.8 1.6-.2 0-.3 0-.5-.1v2.9zM115.7 320.8c-.7 0-1.3.6-1.3 1.3 0 .7.6 1.3 1.3 1.3s1.3-.6 1.3-1.3c-.1-.7-.6-1.3-1.3-1.3z"/></g><g fill="#81AECD"><path d="M146.903 419.75h-9.8v-9.8h9.8z"/><path d="M137.103 429.45h-9.8v-9.8h9.8zM146.903 439.25h-9.8v-9.8h9.8z"/></g><path fill-rule="evenodd" clip-rule="evenodd" fill="#4299D4" d="M46.4 324l-4.4-4-4.4 4-2.1-2 6.5-6 6.5 6-2.1 2z"/><path fill-rule="evenodd" clip-rule="evenodd" fill="#256FA2" d="M64.4 324l-4.4-4-4.4 4-2.1-2 6.5-6 6.5 6-2.1 2z"/><path fill-rule="evenodd" clip-rule="evenodd" fill="#646565" d="M129.4 112l-4.4-4-4.4 4-2.1-2 6.5-6 6.5 6-2.1 2z"/><path fill="#DB2727" d="M20 616.4l-3.6 3.6-6.4-6.4-6.4 6.4-3.6-3.6 6.4-6.4-6.4-6.4 3.6-3.6 6.4 6.4 6.4-6.4 3.6 3.6-6.4 6.4z"/><path fill="#4AB749" d="M38.9 620l-3.7-3.6-6.3-6.4 3.6-3.6 6.4 6.3L51.5 600l3.6 3.6-12.6 12.8z"/><path fill="#646565" d="M86.2 607.8v4.4h-7.7v7.6h-4.4v-7.6h-7.6v-4.4h7.6v-7.6h4.4v7.6zM96.3 607.8H116v4.4H96.3z"/><g><defs><path id="y" d="M176 2h158v206.1H176z"/></defs><clipPath id="z"><use xlink:href="#y" overflow="visible"/></clipPath><g clip-path="url(#z)"><defs><path id="A" d="M176 2h158v206.1H176z"/></defs><clipPath id="B"><use xlink:href="#A" overflow="visible"/></clipPath><g opacity=".1" clip-path="url(#B)"><defs><path id="C" d="M176 2h158v206.1H176z"/></defs><clipPath id="D"><use xlink:href="#C" overflow="visible"/></clipPath><path clip-path="url(#D)" fill="#242115" d="M286.1 201.3c-1.6 5.1-7.1 8-12.2 6.4L193 182.3c-5.1-1.6-8-7.1-6.4-12.2L234.1 19c1.6-5.1 7.1-8 12.2-6.4L327.2 38c5.1 1.6 8 7.1 6.4 12.2l-47.5 151.1z"/><path transform="rotate(-72.554 262.626 105.603)" clip-path="url(#D)" fill="#242115" d="M199.3 64.7H326v81.7H199.3z"/><path clip-path="url(#D)" fill="#242115" d="M282.6 178.3l-78-24.5 116-96.4z"/><path transform="rotate(-72.56 241.185 173.84)" clip-path="url(#D)" fill="#242115" d="M239.1 167.7h4.1V180h-4.1z"/><path transform="rotate(-72.56 283.448 36.305)" clip-path="url(#D)" fill="#242115" d="M281.5 34.4h3.9v3.9h-3.9z"/><path clip-path="url(#D)" fill="#242115" d="M284 199.3c-1.6 5.1-7.1 8-12.2 6.4L191 180.2c-5.1-1.6-8-7.1-6.4-12.2l47.5-151c1.6-5.1 7.1-8 12.2-6.4L325.2 36c5.1 1.6 8 7.1 6.4 12.2L284 199.3z"/><path transform="rotate(-72.554 260.583 103.56)" clip-path="url(#D)" fill="#242115" d="M197.2 62.7h126.7v81.7H197.2z"/><path clip-path="url(#D)" fill="#242115" d="M280.6 176.2l-78-24.5 115.9-96.3z"/><path transform="rotate(-72.554 239.128 171.791)" clip-path="url(#D)" fill="#242115" d="M237.1 165.7h4.1V178h-4.1z"/><path transform="rotate(-72.554 281.379 34.271)" clip-path="url(#D)" fill="#242115" d="M279.4 32.3h3.9v3.9h-3.9z"/><path clip-path="url(#D)" fill="#242115" d="M282 197.2c-1.6 5.1-7.1 8-12.2 6.4l-80.9-25.4c-5.1-1.6-8-7.1-6.4-12.2L230 14.9c1.6-5.1 7.1-8 12.2-6.4L323.1 34c5.1 1.6 8 7.1 6.4 12.2l-47.5 151z"/><path transform="rotate(-72.554 258.539 101.516)" clip-path="url(#D)" fill="#242115" d="M195.2 60.7h126.7v81.7H195.2z"/><path clip-path="url(#D)" fill="#242115" d="M278.5 174.2l-77.9-24.5 115.9-96.4z"/><path transform="rotate(-72.56 237.102 169.753)" clip-path="url(#D)" fill="#242115" d="M235 163.6h4.1v12.3H235z"/><path transform="rotate(-72.56 279.353 32.223)" clip-path="url(#D)" fill="#242115" d="M277.4 30.3h3.9v3.9h-3.9z"/><path clip-path="url(#D)" fill="#242115" d="M280 195.2c-1.6 5.1-7.1 8-12.2 6.4l-80.9-25.4c-5.1-1.6-8-7.1-6.4-12.2L228 12.9c1.6-5.1 7.1-8 12.2-6.4L321.1 32c5.1 1.6 8 7.1 6.4 12.2l-47.5 151z"/><path transform="rotate(-72.554 256.496 99.473)" clip-path="url(#D)" fill="#242115" d="M193.1 58.6h126.7v81.7H193.1z"/><path clip-path="url(#D)" fill="#242115" d="M276.5 172.2l-78-24.5 116-96.4z"/><path transform="rotate(-72.554 235.042 167.705)" clip-path="url(#D)" fill="#242115" d="M233 161.6h4.1v12.3H233z"/><path transform="rotate(-72.554 277.295 30.183)" clip-path="url(#D)" fill="#242115" d="M275.4 28.2h3.9v3.9h-3.9z"/><path clip-path="url(#D)" fill="#242115" d="M277.9 193.2c-1.6 5.1-7.1 8-12.2 6.4l-80.9-25.4c-5.1-1.6-8-7.1-6.4-12.2L226 10.8c1.6-5.1 7.1-8 12.2-6.4L319 29.9c5.1 1.6 8 7.1 6.4 12.2l-47.5 151.1z"/><path transform="rotate(-72.554 254.452 97.43)" clip-path="url(#D)" fill="#242115" d="M191.1 56.6h126.7v81.7H191.1z"/><path clip-path="url(#D)" fill="#242115" d="M274.4 170.1l-77.9-24.5 115.9-96.3z"/><path transform="rotate(-72.56 233.013 165.666)" clip-path="url(#D)" fill="#242115" d="M231 159.5h4.1v12.3H231z"/><path transform="rotate(-72.56 275.275 28.132)" clip-path="url(#D)" fill="#242115" d="M273.3 26.2h3.9v3.9h-3.9z"/><path clip-path="url(#D)" fill="#242115" d="M275.9 191.1c-1.6 5.1-7.1 8-12.2 6.4L182.8 172c-5.1-1.6-8-7.1-6.4-12.2l47.5-151c1.6-5.1 7.1-8 12.2-6.4L317 27.9c5.1 1.6 8 7.1 6.4 12.2l-47.5 151z"/><path transform="rotate(-72.554 252.409 95.386)" clip-path="url(#D)" fill="#242115" d="M189.1 54.5h126.7v81.7H189.1z"/><path clip-path="url(#D)" fill="#242115" d="M272.4 168.1l-78-24.5 116-96.4z"/><path transform="rotate(-72.554 230.956 163.618)" clip-path="url(#D)" fill="#242115" d="M228.9 157.5h4.1v12.3h-4.1z"/><path transform="rotate(-72.554 273.217 26.091)" clip-path="url(#D)" fill="#242115" d="M271.3 24.2h3.9v3.9h-3.9z"/></g><path clip-path="url(#B)" fill="#4499D4" d="M275.9 191.1c-1.6 5.1-7.1 8-12.2 6.4L182.8 172c-5.1-1.6-8-7.1-6.4-12.2l47.5-151c1.6-5.1 7.1-8 12.2-6.4L317 27.9c5.1 1.6 8 7.1 6.4 12.2l-47.5 151z"/><path transform="rotate(-72.554 252.409 95.386)" clip-path="url(#B)" fill="#FFF" d="M189.1 54.5h126.7v81.7H189.1z"/><path clip-path="url(#B)" fill="#E5E5E5" d="M272.4 168.1l-78-24.5 116-96.4z"/><path transform="rotate(-72.554 230.956 163.618)" clip-path="url(#B)" fill="#FFF" d="M228.9 157.5h4.1v12.3h-4.1z"/><path transform="rotate(-72.554 273.217 26.091)" clip-path="url(#B)" fill="#FFF" d="M271.3 24.2h3.9v3.9h-3.9z"/></g></g><g><defs><path id="E" d="M175.4 240h205.3v137.5H175.4z"/></defs><clipPath id="F"><use xlink:href="#E" overflow="visible"/></clipPath><g opacity=".13" clip-path="url(#F)"><defs><path id="G" d="M182.8 240h197.9v122.7H182.8z"/></defs><clipPath id="H"><use xlink:href="#G" overflow="visible"/></clipPath><path clip-path="url(#H)" fill="#231F20" d="M194 288.4l170.9-37.1v111.4L194 325.5"/><path clip-path="url(#H)" fill="#231F20" d="M351 307c0 30.8 6.6 55.7 14.8 55.7 8.2 0 14.8-24.9 14.8-55.7s-6.6-55.7-14.8-55.7c-8.2 0-14.8 24.9-14.8 55.7"/><path clip-path="url(#H)" fill="#231F20" d="M191.8 286.1L362.6 249v111.4l-170.8-37.1"/><path clip-path="url(#H)" fill="#231F20" d="M348.7 304.7c0 30.8 6.6 55.7 14.8 55.7 8.2 0 14.8-24.9 14.8-55.7 0-30.8-6.6-55.7-14.8-55.7-8.1 0-14.8 24.9-14.8 55.7"/><path clip-path="url(#H)" fill="#231F20" d="M189.5 283.9l170.9-37.1v111.4L189.5 321"/><path clip-path="url(#H)" fill="#231F20" d="M346.5 302.5c0 30.8 6.6 55.7 14.8 55.7 8.2 0 14.8-24.9 14.8-55.7s-6.6-55.7-14.8-55.7c-8.2 0-14.8 24.9-14.8 55.7"/><path clip-path="url(#H)" fill="#231F20" d="M187.3 281.6l170.8-37.1v111.4l-170.8-37.1"/><path clip-path="url(#H)" fill="#231F20" d="M344.2 300.2c0 30.8 6.6 55.7 14.8 55.7 8.2 0 14.8-24.9 14.8-55.7 0-30.8-6.6-55.7-14.8-55.7-8.1 0-14.8 24.9-14.8 55.7"/><path clip-path="url(#H)" fill="#231F20" d="M185 279.4l170.9-37.1v111.4L185 316.5"/><path clip-path="url(#H)" fill="#231F20" d="M342 298c0 30.8 6.6 55.7 14.8 55.7 8.2 0 14.8-24.9 14.8-55.7s-6.6-55.7-14.8-55.7c-8.2 0-14.8 24.9-14.8 55.7"/><path clip-path="url(#H)" fill="#231F20" d="M182.8 277.1L353.6 240v111.4l-170.8-37.1"/><path clip-path="url(#H)" fill="#231F20" d="M339.7 295.7c0 30.8 6.6 55.7 14.8 55.7 8.2 0 14.8-24.9 14.8-55.7 0-30.8-6.6-55.7-14.8-55.7-8.1 0-14.8 24.9-14.8 55.7"/></g><path fill="#FFF" d="M353.6 240l-170.8 37.1v37.2l170.8 37.1z"/><g><path fill="#4499D4" d="M339.7 295.7c0 30.8 6.6 55.7 14.8 55.7 8.2 0 14.8-24.9 14.8-55.7 0-30.8-6.6-55.7-14.8-55.7-8.1 0-14.8 24.9-14.8 55.7"/><g opacity=".2"><defs><path id="I" d="M212.5 321h93v56.5h-93z"/></defs><clipPath id="J"><use xlink:href="#I" overflow="visible"/></clipPath><path clip-path="url(#J)" fill="none" stroke="#010101" stroke-width="8.04" d="M231.2 332.3v30.4s0 7.4 7.4 7.4h52s7.4 0 7.4-7.4v-16.9"/><path clip-path="url(#J)" fill="none" stroke="#010101" stroke-width="8.04" d="M228.9 330v30.4s0 7.4 7.4 7.4h52s7.4 0 7.4-7.4v-16.9"/><path clip-path="url(#J)" fill="none" stroke="#010101" stroke-width="8.04" d="M226.7 327.8v30.4s0 7.4 7.4 7.4h52s7.4 0 7.4-7.4v-16.9"/><path clip-path="url(#J)" fill="none" stroke="#010101" stroke-width="8.04" d="M224.4 325.5v30.4s0 7.4 7.4 7.4h52s7.4 0 7.4-7.4V339"/><path clip-path="url(#J)" fill="none" stroke="#010101" stroke-width="8.04" d="M222.2 323.3v30.4s0 7.4 7.4 7.4h52s7.4 0 7.4-7.4v-16.9"/><path clip-path="url(#J)" fill="none" stroke="#010101" stroke-width="8.04" d="M219.9 321v30.4s0 7.4 7.4 7.4h52s7.4 0 7.4-7.4v-16.9"/></g><path fill="none" stroke="#FFF" stroke-width="8.039" d="M219.9 321v30.4s0 7.4 7.4 7.4h52s7.4 0 7.4-7.4v-16.9"/><g opacity=".2"><defs><path id="K" d="M182.7 275.4h9v40.9h-9z"/></defs><clipPath id="L"><use xlink:href="#K" overflow="visible"/></clipPath><path clip-path="url(#L)" fill="#6EB6E4" d="M191.7 316.3l-9-2V277l9-1.6z"/></g></g></g><g><g opacity=".2"><defs><path id="M" d="M361.5 2h133v172.5h-133z"/></defs><clipPath id="N"><use xlink:href="#M" overflow="visible"/></clipPath><path clip-path="url(#N)" fill="#6E6D6E" d="M361.5 165.3l9.4 9.2h123.6V11.4L485.1 2 366.7 6l-5.2 159.3zm25-2.9h-9v-14.3h9v14.3zm0-24.9h-9v-15.6h9v15.6zm0-26.4h-9V95.5h9v15.6zm0-26.3h-9V69.2h9v15.6zm-1.4-26.3h-7.7V42.9h7.7v15.6zm1.4-26.3h-9V16.5h9v15.7zm97.4 131.6h-7.7v-15.6h7.7v15.6zm0-26.3h-7.7v-15.6h7.7v15.6zm0-26.4h-7.7V95.5h7.7v15.6zm0-26.3h-7.7V69.2h7.7v15.6zm0-26.3h-7.7V42.9h7.7v15.6zm0-26.3h-7.7V16.5h7.7v15.7z"/><path clip-path="url(#N)" fill="#231F20" d="M361.5 165.1h123.6V2H361.5v163.1zm19.8-6.5h-13.2v-19.7h13.2v19.7zm0-26.4h-13.2v-19.7h13.2v19.7zm0-26.3h-13.2V86.2h13.2v19.7zm0-26.3h-13.2V59.8h13.2v19.8zm0-26.3h-13.2V33.5h13.2v19.8zm0-26.4h-13.2V7.2h13.2v19.7zm78.9 131.7h-72.4v-46.1h72.4v46.1zm0-52.7h-72.4V59.8h72.4v46.1zm0-52.6h-72.4V7.2h72.4v46.1zM480 158.6h-13.2v-19.7H480v19.7zm0-26.4h-13.2v-19.7H480v19.7zm0-26.3h-13.2V86.2H480v19.7zm0-26.3h-13.2V59.8H480v19.8zm0-26.3h-13.2V33.5H480v19.8zm0-26.4h-13.2V7.2H480v19.7z"/><path clip-path="url(#N)" fill="#231F20" d="M387.9 59.8h72.4v46.1h-72.4zM387.9 6.1h72.4v47.1h-72.4zM387.9 112.5h72.4v47.1h-72.4z"/></g><path fill="#FFF" d="M387.8 59.6h72.4v46.1h-72.4zM387.8 112.2h72.4v46.1h-72.4zM387.8 7.2h72.4v46.1h-72.4z"/><path fill="#E5E5E5" d="M460.2 158.6h-72.4L460.2 7.1z"/><path fill="#4499D4" d="M361.5 165.1h123.6V2H361.5v163.1zm19.8-6.5h-13.2v-19.7h13.2v19.7zm0-26.4h-13.2v-19.7h13.2v19.7zm0-26.3h-13.2V86.2h13.2v19.7zm0-26.3h-13.2V59.8h13.2v19.8zm0-26.3h-13.2V33.5h13.2v19.8zm0-26.4h-13.2V7.2h13.2v19.7zm78.9 131.7h-72.4v-46.1h72.4v46.1zm0-52.7h-72.4V59.8h72.4v46.1zm0-52.6h-72.4V7.2h72.4v46.1zM480 158.6h-13.2v-19.7H480v19.7zm0-26.4h-13.2v-19.7H480v19.7zm0-26.3h-13.2V86.2H480v19.7zm0-26.3h-13.2V59.8H480v19.8zm0-26.3h-13.2V33.5H480v19.8zm0-26.4h-13.2V7.2H480v19.7z"/></g><g><g opacity=".44"><defs><path id="O" opacity=".44" d="M401.7 273.5H468v104h-66.3z"/></defs><clipPath id="P"><use xlink:href="#O" overflow="visible"/></clipPath><g clip-path="url(#P)"><defs><path id="Q" d="M401.7 273.5H468v104h-66.3z"/></defs><clipPath id="R"><use xlink:href="#Q" overflow="visible"/></clipPath><g opacity=".2" clip-path="url(#R)"><defs><path id="S" d="M401.7 273.5H468v104h-66.3z"/></defs><clipPath id="T"><use xlink:href="#S" overflow="visible"/></clipPath><path clip-path="url(#T)" fill="#010101" d="M468 309.7c0-16.6-13.5-30.1-30.1-30.1s-30.1 13.5-30.1 30.1c0 5.5 1.5 10.6 4.1 15.1l26.1 52.7 26.1-52.7c2.5-4.5 3.9-9.6 3.9-15.1m-30 18.8c-10.4 0-18.8-8.4-18.8-18.8s8.4-18.8 18.8-18.8 18.8 8.4 18.8 18.8c-.1 10.4-8.5 18.8-18.8 18.8"/><path clip-path="url(#T)" fill="#010101" d="M466.8 308.5c0-16.6-13.5-30.1-30.1-30.1s-30.1 13.5-30.1 30.1c0 5.5 1.5 10.6 4.1 15.1l26.1 52.7 26.1-52.7c2.4-4.5 3.9-9.6 3.9-15.1m-30.1 18.8c-10.4 0-18.8-8.4-18.8-18.8s8.4-18.8 18.8-18.8 18.8 8.4 18.8 18.8-8.4 18.8-18.8 18.8"/><path clip-path="url(#T)" fill="#010101" d="M465.6 307.3c0-16.6-13.5-30.1-30.1-30.1s-30.1 13.5-30.1 30.1c0 5.5 1.5 10.6 4.1 15.1l26.1 52.7 26.1-52.7c2.4-4.5 3.9-9.6 3.9-15.1M435.5 326c-10.4 0-18.8-8.4-18.8-18.8s8.4-18.8 18.8-18.8 18.8 8.4 18.8 18.8-8.4 18.8-18.8 18.8"/><path clip-path="url(#T)" fill="#010101" d="M464.4 306.1c0-16.6-13.5-30.1-30.1-30.1s-30.1 13.5-30.1 30.1c0 5.5 1.5 10.6 4.1 15.1l26.1 52.7 26.1-52.7c2.4-4.5 3.9-9.6 3.9-15.1m-30.1 18.7c-10.4 0-18.8-8.4-18.8-18.8s8.4-18.8 18.8-18.8 18.8 8.4 18.8 18.8-8.4 18.8-18.8 18.8"/><path clip-path="url(#T)" fill="#010101" d="M463.2 304.8c0-16.6-13.5-30.1-30.1-30.1S403 288.2 403 304.8c0 5.5 1.5 10.6 4.1 15.1l26.1 52.7 26.1-52.7c2.4-4.4 3.9-9.6 3.9-15.1m-30.1 18.8c-10.4 0-18.8-8.4-18.8-18.8s8.4-18.8 18.8-18.8 18.8 8.4 18.8 18.8c-.1 10.4-8.5 18.8-18.8 18.8"/><path clip-path="url(#T)" fill="#010101" d="M461.9 303.6c0-16.6-13.5-30.1-30.1-30.1s-30.1 13.5-30.1 30.1c0 5.5 1.5 10.6 4.1 15.1l26.1 52.7 26.1-52.7c2.5-4.5 3.9-9.6 3.9-15.1m-30 18.8c-10.4 0-18.8-8.4-18.8-18.8s8.4-18.8 18.8-18.8 18.8 8.4 18.8 18.8c-.1 10.4-8.5 18.8-18.8 18.8"/></g><path clip-path="url(#R)" fill="#4499D4" d="M461.9 303.6c0-16.6-13.5-30.1-30.1-30.1s-30.1 13.5-30.1 30.1c0 5.5 1.5 10.6 4.1 15.1l26.1 52.7 26.1-52.7c2.5-4.5 3.9-9.6 3.9-15.1m-30 18.8c-10.4 0-18.8-8.4-18.8-18.8s8.4-18.8 18.8-18.8 18.8 8.4 18.8 18.8c-.1 10.4-8.5 18.8-18.8 18.8"/></g></g><g opacity=".44"><defs><path id="U" opacity=".44" d="M498.6 273.5h66.3v104h-66.3z"/></defs><clipPath id="V"><use xlink:href="#U" overflow="visible"/></clipPath><g clip-path="url(#V)"><defs><path id="W" d="M498.6 273.5h66.3v104h-66.3z"/></defs><clipPath id="X"><use xlink:href="#W" overflow="visible"/></clipPath><g opacity=".2" clip-path="url(#X)"><defs><path id="Y" d="M498.6 273.5h66.3v104h-66.3z"/></defs><clipPath id="Z"><use xlink:href="#Y" overflow="visible"/></clipPath><path clip-path="url(#Z)" fill="#010101" d="M564.9 309.7c0-16.6-13.5-30.1-30.1-30.1s-30.1 13.5-30.1 30.1c0 5.5 1.5 10.6 4.1 15.1l26.1 52.7 26.1-52.7c2.5-4.5 3.9-9.6 3.9-15.1m-30.1 18.8c-10.4 0-18.8-8.4-18.8-18.8s8.4-18.8 18.8-18.8 18.8 8.4 18.8 18.8-8.4 18.8-18.8 18.8"/><path clip-path="url(#Z)" fill="#010101" d="M563.7 308.5c0-16.6-13.5-30.1-30.1-30.1s-30.1 13.5-30.1 30.1c0 5.5 1.5 10.6 4.1 15.1l26.1 52.7 26.1-52.7c2.4-4.5 3.9-9.6 3.9-15.1m-30.1 18.8c-10.4 0-18.8-8.4-18.8-18.8s8.4-18.8 18.8-18.8 18.8 8.4 18.8 18.8-8.4 18.8-18.8 18.8"/><path clip-path="url(#Z)" fill="#010101" d="M562.5 307.3c0-16.6-13.5-30.1-30.1-30.1s-30.1 13.5-30.1 30.1c0 5.5 1.5 10.6 4.1 15.1l26.1 52.7 26.1-52.7c2.4-4.5 3.9-9.6 3.9-15.1M532.4 326c-10.4 0-18.8-8.4-18.8-18.8s8.4-18.8 18.8-18.8 18.8 8.4 18.8 18.8-8.4 18.8-18.8 18.8"/><path clip-path="url(#Z)" fill="#010101" d="M561.3 306.1c0-16.6-13.5-30.1-30.1-30.1s-30.1 13.5-30.1 30.1c0 5.5 1.5 10.6 4.1 15.1l26.1 52.7 26.1-52.7c2.4-4.5 3.9-9.6 3.9-15.1m-30.1 18.7c-10.4 0-18.8-8.4-18.8-18.8s8.4-18.8 18.8-18.8S550 295.6 550 306c-.1 10.4-8.5 18.8-18.8 18.8"/><path clip-path="url(#Z)" fill="#010101" d="M560.1 304.8c0-16.6-13.5-30.1-30.1-30.1s-30.1 13.5-30.1 30.1c0 5.5 1.5 10.6 4.1 15.1l26.1 52.7 26.1-52.7c2.4-4.4 3.9-9.6 3.9-15.1M530 323.6c-10.4 0-18.8-8.4-18.8-18.8S519.6 286 530 286s18.8 8.4 18.8 18.8c-.1 10.4-8.5 18.8-18.8 18.8"/><path clip-path="url(#Z)" fill="#010101" d="M558.8 303.6c0-16.6-13.5-30.1-30.1-30.1s-30.1 13.5-30.1 30.1c0 5.5 1.5 10.6 4.1 15.1l26.1 52.7 26.1-52.7c2.5-4.5 3.9-9.6 3.9-15.1m-30.1 18.8c-10.4 0-18.8-8.4-18.8-18.8s8.4-18.8 18.8-18.8 18.8 8.4 18.8 18.8-8.4 18.8-18.8 18.8"/></g><path clip-path="url(#X)" fill="#4499D4" d="M558.8 303.6c0-16.6-13.5-30.1-30.1-30.1s-30.1 13.5-30.1 30.1c0 5.5 1.5 10.6 4.1 15.1l26.1 52.7 26.1-52.7c2.5-4.5 3.9-9.6 3.9-15.1m-30.1 18.8c-10.4 0-18.8-8.4-18.8-18.8s8.4-18.8 18.8-18.8 18.8 8.4 18.8 18.8-8.4 18.8-18.8 18.8"/></g></g><defs><path id="aa" d="M430.6 217.2h108.2v169.6H430.6z"/></defs><clipPath id="ab"><use xlink:href="#aa" overflow="visible"/></clipPath><g clip-path="url(#ab)"><defs><path id="ac" d="M430.6 217.2h108.2v169.6H430.6z"/></defs><clipPath id="ad"><use xlink:href="#ac" overflow="visible"/></clipPath><g opacity=".2" clip-path="url(#ad)"><defs><path id="ae" d="M430.6 217.2h108.2v169.6H430.6z"/></defs><clipPath id="af"><use xlink:href="#ae" overflow="visible"/></clipPath><path clip-path="url(#af)" fill="#010101" d="M538.8 276.3c0-27.1-22-49.1-49.1-49.1s-49.1 22-49.1 49.1c0 9 2.4 17.3 6.6 24.6h-.1l42.5 86 42.6-86h-.1c4.3-7.3 6.7-15.7 6.7-24.6m-49.1 30.6c-16.9 0-30.6-13.7-30.6-30.6 0-16.9 13.7-30.6 30.6-30.6 16.9 0 30.6 13.7 30.6 30.6 0 16.9-13.7 30.6-30.6 30.6"/><path clip-path="url(#af)" fill="#010101" d="M536.8 274.3c0-27.1-22-49.1-49.1-49.1s-49.1 22-49.1 49.1c0 9 2.4 17.3 6.6 24.6h-.1l42.5 86 42.6-86h-.1c4.3-7.3 6.7-15.7 6.7-24.6m-49.1 30.6c-16.9 0-30.6-13.7-30.6-30.6 0-16.9 13.7-30.6 30.6-30.6 16.9 0 30.6 13.7 30.6 30.6.1 16.9-13.7 30.6-30.6 30.6"/><path clip-path="url(#af)" fill="#010101" d="M534.8 272.3c0-27.1-22-49.1-49.1-49.1s-49.1 22-49.1 49.1c0 9 2.4 17.3 6.6 24.6h-.1l42.5 86 42.6-86h-.1c4.3-7.3 6.7-15.7 6.7-24.6m-49.1 30.6c-16.9 0-30.6-13.7-30.6-30.6 0-16.9 13.7-30.6 30.6-30.6 16.9 0 30.6 13.7 30.6 30.6.1 16.9-13.7 30.6-30.6 30.6"/><path clip-path="url(#af)" fill="#010101" d="M532.9 270.3c0-27.1-22-49.1-49.1-49.1s-49.1 22-49.1 49.1c0 9 2.4 17.3 6.6 24.6h-.1l42.5 86 42.6-86h-.1c4.2-7.3 6.7-15.7 6.7-24.6m-49.1 30.6c-16.9 0-30.6-13.7-30.6-30.6 0-16.9 13.7-30.6 30.6-30.6 16.9 0 30.6 13.7 30.6 30.6 0 16.9-13.7 30.6-30.6 30.6"/><path clip-path="url(#af)" fill="#010101" d="M530.9 268.3c0-27.1-22-49.1-49.1-49.1s-49.1 22-49.1 49.1c0 9 2.4 17.3 6.6 24.6h-.1l42.5 86 42.6-86h-.1c4.2-7.3 6.7-15.6 6.7-24.6m-49.1 30.6c-16.9 0-30.6-13.7-30.6-30.6 0-16.9 13.7-30.6 30.6-30.6 16.9 0 30.6 13.7 30.6 30.6 0 16.9-13.7 30.6-30.6 30.6"/><path clip-path="url(#af)" fill="#010101" d="M528.9 266.3c0-27.1-22-49.1-49.1-49.1s-49.1 22-49.1 49.1c0 9 2.4 17.3 6.6 24.6h-.1l42.5 86 42.6-86h-.1c4.3-7.3 6.7-15.6 6.7-24.6m-49.1 30.6c-16.9 0-30.6-13.7-30.6-30.6 0-16.9 13.7-30.6 30.6-30.6 16.9 0 30.6 13.7 30.6 30.6 0 16.9-13.7 30.6-30.6 30.6"/></g><path clip-path="url(#ad)" fill="#4499D4" d="M528.9 266.3c0-27.1-22-49.1-49.1-49.1s-49.1 22-49.1 49.1c0 9 2.4 17.3 6.6 24.6h-.1l42.5 86 42.6-86h-.1c4.3-7.3 6.7-15.6 6.7-24.6m-49.1 30.6c-16.9 0-30.6-13.7-30.6-30.6 0-16.9 13.7-30.6 30.6-30.6 16.9 0 30.6 13.7 30.6 30.6 0 16.9-13.7 30.6-30.6 30.6"/></g></g><g><path fill="#D8D8D8" d="M344.4 440.7v117.9H187.2V440.7h157.2m0-11.2v5.6H181.6v123.5H176l11.2 5.6H350V435.1l-5.6-5.6z"/><path fill="#FFF" d="M181.6 435.1h157.2V553H181.6z"/><path fill="#E5E5E5" d="M338.8 553H181.6l157.2-117.9z"/><path fill="#CCC" d="M269.8 508.7h-17.2l-13.7-23.6-10.5 33.4-7.1-67.4-9.2-.6-17.9 58.2h-12.6v8.2h19.8l12.9-42.1 7.1 67 9.2.7 10.9-34.7 5.2 9.1h35.9v-8.2z"/><path fill="#CCC" d="M344.4 508.7h-7.7l-13.6-23.6-10.5 33.4-7.1-67.4-9.2-.6-18 58.2H249v8.2h36.6l12.9-42.1 7.1 67 9.2.7 10.9-34.7 5.2 9.1h13.5v-8.2z"/><path fill="#4299D4" d="M264.2 505.1h-17.3l-13.6-23.7-10.5 33.4-7.1-67.3-9.2-.7-18 58.3H176v8.1h19.8l12.9-42.1 7.1 67 9.2.7 10.9-34.6 5.2 9H277v-8.1z"/><path fill="#4299D4" d="M338.8 505.1h-7.7l-13.6-23.7-10.5 33.4-7.1-67.3-9.2-.7-18 58.3h-29.4v8.1H280l12.9-42.1 7 67 9.3.7 10.9-34.6 5.2 9h13.5v-8.1z"/><path fill="#4299D4" d="M338.8 435.1V553H181.6V435.1h157.2m5.6-5.6H176v129.1H344.4V429.5z"/></g><g><path fill="#0379AA" d="M350.6 572h-37.5v37.6h37.5v-12.4c.1-.2.2-.5.2-.8 0-.4-.1-.6-.2-.8"/><path fill="#FFF" d="M316.5 588.3l-.7-1.8-.7 1.8m17.3-.7c-.1.1-.3.1-.5.1h-1.3v-1h1.3c.2 0 .4 0 .5.1.1.1.2.2.2.4 0 .1-.1.3-.2.4zm9.1.7l-.7-1.8-.7 1.8h1.4zm-17 1.9h-1.1v-3.4l-1.5 3.4h-.9l-1.5-3.5v3.5h-2.1l-.4-1h-2.2l-.4 1h-1.1l1.9-4.4h1.6l1.8 4.2v-4.2h1.7l1.4 3 1.3-3h1.8l-.3 4.4zm4.3 0h-3.5v-4.4h3.5v.9h-2.5v.8h2.4v.9h-2.4v.9h2.5v.9zm5-3.3c0 .7-.5 1.1-.7 1.2.2.1.4.2.5.4.1.2.2.4.2.8v.9h-1.1v-.6c0-.3 0-.6-.2-.9-.2-.2-.4-.2-.8-.2h-1.1v1.6h-1.1v-4.4h2.4c.5 0 .9 0 1.3.2.4.3.6.6.6 1zm1.7 3.3h-1.1v-4.4h1.1v4.4zm12.4 0h-1.5l-2-3.3v3.3h-2.1l-.4-1h-2.2l-.4 1h-1.2c-.5 0-1.2-.1-1.5-.5-.4-.4-.6-.9-.6-1.7 0-.7.1-1.3.6-1.7.3-.4.9-.5 1.6-.5h1v.9h-1c-.4 0-.6.1-.8.3-.2.2-.3.5-.3 1s.1.8.3 1c.2.2.5.2.7.2h.5l1.5-3.5h1.6l1.8 4.2v-4.2h1.6l1.9 3.1v-3.1h1.1l-.2 4.5zm-34.7.8h1.8l.4-1h.9l.4 1h3.5v-.7l.3.8h1.8l.3-.8v.8h8.8v-1.6h.2c.1 0 .2 0 .2.2v1.4h4.5v-.4c.4.2.9.4 1.7.4h1.9l.4-1h.9l.4 1h3.7v-.9l.6.9h3V585H346v.7l-.4-.7h-3v.7l-.4-.7h-4.1c-.7 0-1.3.1-1.8.4v-.4h-2.8v.4c-.3-.3-.7-.4-1.2-.4h-10.2l-.7 1.6-.7-1.6h-3.2v.7l-.4-.7h-2.7l-1.3 2.9.1 3.1zM350.6 594.3h-1.9c-.2 0-.3 0-.4.1-.1.1-.2.2-.2.3 0 .2.1.3.2.3h1c.6 0 1 .1 1.2.4l.1.1m0 1.7c-.3.4-.8.6-1.4.6h-2v-.9h2c.2 0 .3 0 .4-.1.1-.1.1-.2.1-.3 0-.1-.1-.2-.1-.3-.1-.1-.2-.1-.4-.1-1 0-2.2 0-2.2-1.4 0-.6.4-1.3 1.5-1.3h2.1v-.9h-1.9c-.6 0-1 .1-1.3.4v-.4h-2.9c-.5 0-1 .1-1.3.4v-.4h-5.1v.4c-.4-.3-1.1-.4-1.4-.4h-3.4v.4c-.3-.3-1-.4-1.5-.4H328l-.9.9-.8-.9h-5.7v6.1h5.6l.9-1 .8 1h3.4v-1.4h.3c.5 0 1 0 1.5-.2v1.7h2.8V597h.1c.2 0 .2 0 .2.2v1.4h8.6c.5 0 1.1-.1 1.4-.4v.4h2.7c.6 0 1.1-.1 1.5-.3v-1.1h.2zm-4.2-1.8c.2.2.3.5.3.9 0 .9-.6 1.4-1.7 1.4h-2v-.9h2c.2 0 .3 0 .4-.1.1-.1.1-.2.1-.3 0-.1-.1-.2-.1-.3-.1-.1-.2-.1-.4-.1-1 0-2.2 0-2.2-1.4 0-.6.4-1.3 1.5-1.3h2.1v.9h-1.9c-.2 0-.3 0-.4.1-.1.1-.2.2-.2.3 0 .2.1.3.2.3h1c.7.2 1.1.3 1.3.5zm-9.5-.2c-.1.1-.3.1-.5.1h-1.3v-1h1.3c.2 0 .4 0 .5.1.1.1.2.2.2.4 0 .1 0 .3-.2.4zm.7.5c.2.1.4.2.5.4.1.2.2.4.2.8v.9h-1.1v-.6c0-.3 0-.7-.2-.9-.2-.2-.4-.2-.8-.2h-1.1v1.6H334v-4.4h2.4c.5 0 .9 0 1.3.2.3.2.5.5.5 1 .1.7-.4 1.1-.6 1.2zm1.3-2.4h3.5v.9h-2.5v.8h2.4v.9h-2.4v.9h2.5v.9h-3.5v-4.4zm-7.1 2.1h-1.4v-1.1h1.4c.4 0 .6.2.6.5 0 .4-.2.6-.6.6zm-2.4 1.9l-1.6-1.8 1.6-1.7v3.5zm-4.2-.5h-2.6v-.8h2.3v-.9h-2.3v-.8h2.6l1.2 1.3-1.2 1.2zm8.4-2c0 1.2-.9 1.5-1.8 1.5h-1.3v1.5h-2l-1.3-1.5-1.3 1.5h-4.2v-4.4h4.2l1.3 1.4 1.3-1.4h3.4c.7-.1 1.7.2 1.7 1.4z"/></g><g><path fill="#ED1C24" d="M210.6 592.1c0 7.8-6.3 14.1-14.1 14.1s-14.1-6.3-14.1-14.1 6.3-14.1 14.1-14.1 14.1 6.3 14.1 14.1z"/><path fill="#FAA61A" d="M215.4 578c-3.6 0-7 1.4-9.4 3.6-.5.5-1 1-1.4 1.5h2.8c.4.5.7 1 1.1 1.5h-5c-.3.5-.6 1-.8 1.5h6.6l.6 1.5h-7.8c-.2.5-.3 1-.4 1.5h8.6c.2 1 .3 2 .3 3 0 1.6-.3 3.1-.7 4.5h-7.8l.6 1.5h6.6c-.2.5-.5 1-.8 1.5h-5c.3.5.7 1 1.1 1.5h2.8c-.4.5-.9 1-1.4 1.5 2.5 2.3 5.8 3.6 9.4 3.6 7.8 0 14.1-6.3 14.1-14.1s-6.3-14.1-14.1-14.1z"/><g><path d="M193.3 593.6h-.3c-.9 0-1.3.3-1.3.9 0 .4.2.6.5.6.6 0 1-.6 1.1-1.5zm1.1 2.6h-1.3v-.6c-.4.5-.9.7-1.6.7-.8 0-1.4-.6-1.4-1.6 0-1.4 1-2.2 2.7-2.2h.6c0-.2.1-.3.1-.4 0-.4-.3-.5-1-.5s-1.4.2-1.6.3c0-.1.2-1.3.2-1.3.8-.2 1.3-.3 1.8-.3 1.3 0 2 .6 2 1.7 0 .3 0 .7-.1 1.2-.1.8-.4 2.6-.4 3zM189.5 596.2H188l.9-5.5-2 5.5h-1l-.2-5.5-.9 5.5h-1.4l1.2-7.1h2.2l.1 4 1.3-4h2.5zM217.3 593.6h-.3c-.9 0-1.3.3-1.3.9 0 .4.2.6.5.6.7 0 1.1-.6 1.1-1.5zm1.1 2.6h-1.3v-.6c-.4.5-.9.7-1.6.7-.8 0-1.4-.6-1.4-1.6 0-1.4 1-2.2 2.7-2.2h.6c0-.2.1-.3.1-.4 0-.4-.3-.5-1-.5s-1.4.2-1.6.3c0-.1.2-1.3.2-1.3.8-.2 1.3-.3 1.8-.3 1.3 0 2 .6 2 1.7 0 .3 0 .7-.1 1.2 0 .8-.3 2.6-.4 3zM201.2 596.1c-.4.1-.7.2-1.1.2-.8 0-1.2-.4-1.2-1.3 0-.3.1-.9.2-1.5.1-.5.7-4 .7-4h1.5l-.2.9h.9l-.2 1.4h-.9c-.2 1.1-.4 2.5-.4 2.7 0 .3.2.4.5.4.2 0 .3 0 .4-.1l-.2 1.3z"/><path d="M205.8 596.1c-.5.2-1 .2-1.6.2-1.7 0-2.6-.9-2.6-2.6 0-2 1.1-3.4 2.7-3.4 1.3 0 2.1.8 2.1 2.1 0 .4-.1.8-.2 1.4h-3c-.1.8.4 1.2 1.3 1.2.5 0 1-.1 1.6-.4l-.3 1.5zm-.8-3.5c0-.1.2-1-.7-1-.5 0-.8.4-1 1h1.7zM195.3 592.2c0 .7.4 1.2 1.2 1.6.6.3.7.4.7.6 0 .4-.3.5-.9.5-.5 0-.9-.1-1.4-.2l-.2 1.3c.3.1.7.1 1.6.2 1.6 0 2.4-.6 2.4-1.9 0-.8-.3-1.3-1.1-1.6-.6-.3-.7-.4-.7-.6 0-.3.3-.5.7-.5.3 0 .7 0 1.1.1l.2-1.3c-.4-.1-1-.1-1.3-.1-1.7 0-2.3.9-2.3 1.9zM213.3 590.4c.4 0 .8.1 1.4.4l.3-1.5c-.2-.1-1-.6-1.7-.6-1 0-1.9.5-2.5 1.3-.9-.3-1.3.3-1.7.9l-.4.1c0-.2.1-.4 0-.6h-1.4c-.2 1.8-.5 3.6-.8 5.4l-.1.4h1.5c.3-1.7.4-2.7.5-3.4l.6-.3c.1-.3.4-.4.9-.4-.1.4-.1.8-.1 1.2 0 1.9 1 3.1 2.7 3.1.4 0 .8-.1 1.4-.2l.3-1.6c-.5.2-.9.4-1.3.4-.9 0-1.4-.7-1.4-1.7-.2-1.8.6-2.9 1.8-2.9zM226.2 589.1l-.3 2.1c-.4-.5-.9-.9-1.5-.9-.8 0-1.5.6-1.9 1.4-.6-.1-1.3-.4-1.3-.4.1-.5.1-.8.1-.9h-1.4c-.2 1.8-.5 3.6-.8 5.4l-.1.4h1.5c.2-1.3.4-2.5.5-3.3.5-.5.8-.9 1.3-.9-.2.6-.4 1.2-.4 1.9 0 1.5.7 2.4 1.8 2.4.6 0 1-.2 1.4-.6l-.1.5h1.4l1.2-7.1h-1.4zm-1.9 5.8c-.5 0-.8-.4-.8-1.1 0-1.1.5-2 1.2-2 .5 0 .8.4.8 1.1 0 1.2-.5 2-1.2 2z"/><g fill="#FFF"><path d="M189.9 595.8h-1.5l.9-5.5-2 5.5h-1l-.1-5.5-1 5.5h-1.4l1.2-7.2h2.2l.1 4.5 1.5-4.5h2.3zM193.7 593.2h-.3c-.9 0-1.3.3-1.3.9 0 .4.2.6.5.6.6-.1 1.1-.6 1.1-1.5zm1.1 2.6h-1.3v-.6c-.4.5-.9.7-1.6.7-.8 0-1.4-.6-1.4-1.6 0-1.4 1-2.2 2.7-2.2h.6c0-.2.1-.3.1-.4 0-.4-.3-.5-1-.5s-1.4.2-1.6.3c0-.1.2-1.3.2-1.3.8-.2 1.3-.3 1.8-.3 1.3 0 2 .6 2 1.7 0 .3 0 .7-.1 1.2-.1.7-.3 2.5-.4 3zM215.3 588.8l-.3 1.5c-.5-.3-.9-.4-1.4-.4-1.1 0-1.9 1.1-1.9 2.7 0 1.1.5 1.7 1.4 1.7.4 0 .8-.1 1.3-.4l-.3 1.6c-.6.2-.9.2-1.4.2-1.6 0-2.7-1.2-2.7-3.1 0-2.6 1.4-4.3 3.4-4.3.9.2 1.7.4 1.9.5zM217.8 593.2h-.3c-.9 0-1.3.3-1.3.9 0 .4.2.6.5.6.6-.1 1.1-.6 1.1-1.5zm1.1 2.6h-1.3v-.6c-.4.5-.9.7-1.6.7-.8 0-1.4-.6-1.4-1.6 0-1.4 1-2.2 2.7-2.2h.6c0-.2.1-.3.1-.4 0-.4-.3-.5-1-.5s-1.4.2-1.6.3c0-.1.2-1.3.2-1.3.8-.2 1.3-.3 1.8-.3 1.3 0 2 .6 2 1.7 0 .3 0 .7-.1 1.2-.1.7-.4 2.5-.4 3zM201.6 595.7c-.4.1-.7.2-1.1.2-.8 0-1.2-.4-1.2-1.3 0-.3.1-.9.2-1.5.1-.5.7-4 .7-4h1.5l-.2.9h.8l-.2 1.4h-.8c-.2 1.1-.4 2.5-.4 2.7 0 .3.2.4.5.4.2 0 .3 0 .4-.1l-.2 1.3zM206.3 595.6c-.5.2-1 .2-1.6.2-1.7 0-2.6-.9-2.6-2.6 0-2 1.1-3.4 2.7-3.4 1.3 0 2.1.8 2.1 2.1 0 .4-.1.8-.2 1.4h-3c-.1.8.4 1.2 1.3 1.2.5 0 1-.1 1.6-.4l-.3 1.5zm-.9-3.4c0-.1.2-1-.7-1-.5 0-.8.4-1 1h1.7zM195.7 591.8c0 .7.4 1.2 1.2 1.6.6.3.7.4.7.6 0 .4-.3.5-.9.5-.5 0-.9-.1-1.4-.2l-.2 1.3c.3.1.7.1 1.6.2 1.6 0 2.4-.6 2.4-1.9 0-.8-.3-1.3-1.1-1.6-.6-.3-.7-.4-.7-.6 0-.3.3-.5.7-.5.3 0 .7 0 1.1.1l.2-1.3c-.4-.1-1-.1-1.3-.1-1.7-.1-2.3.8-2.3 1.9zM227 595.8h-1.4l.1-.5c-.4.4-.8.6-1.4.6-1.1 0-1.8-1-1.8-2.4 0-1.9 1.1-3.6 2.5-3.6.6 0 1 .2 1.5.8l.3-2.1h1.5l-1.3 7.2zm-2.3-1.4c.7 0 1.2-.8 1.2-2 0-.7-.3-1.1-.8-1.1-.7 0-1.2.8-1.2 2 0 .8.3 1.1.8 1.1zM220.3 590c-.2 1.8-.5 3.6-.8 5.4l-.1.4h1.5c.5-3.5.7-4.2 1.5-4.2.1-.7.4-1.4.6-1.7-.6-.1-1 .2-1.5.9 0-.3.1-.6.1-.9h-1.3zM207.7 590c-.2 1.8-.5 3.6-.8 5.4l-.1.4h1.5c.5-3.5.7-4.2 1.5-4.2.1-.7.4-1.4.6-1.7-.6-.1-1 .2-1.5.9 0-.3.1-.6.1-.9h-1.3z"/></g></g></g><g><linearGradient id="ag" gradientUnits="userSpaceOnUse" x1="299.606" y1="-1158.816" x2="344.763" y2="-1158.397" gradientTransform="matrix(.8051 0 0 -.8051 8.072 -339.909)"><stop offset="0" stop-color="#27255e"/><stop offset=".2" stop-color="#26265f"/><stop offset=".41" stop-color="#292d6e"/><stop offset=".595" stop-color="#2b337c"/><stop offset=".802" stop-color="#2a3586"/><stop offset="1" stop-color="#293990"/></linearGradient><path fill="url(#ag)" d="M265.6 586.1h3.6l-2.3 13.6h-3.6z"/><linearGradient id="ah" gradientUnits="userSpaceOnUse" x1="249.104" y1="-893.226" x2="294.261" y2="-892.807" gradientTransform="matrix(1 0 0 -1 0 -300)"><stop offset="0" stop-color="#27255e"/><stop offset=".2" stop-color="#26265f"/><stop offset=".41" stop-color="#292d6e"/><stop offset=".595" stop-color="#2b337c"/><stop offset=".802" stop-color="#2a3586"/><stop offset="1" stop-color="#293990"/></linearGradient><path fill="url(#ah)" d="M280.3 586.6c-.7-.3-1.9-.6-3.3-.6-3.6 0-6.2 1.8-6.2 4.5 0 1.9 1.8 3 3.2 3.7 1.4.7 1.9 1.1 1.9 1.7 0 .9-1.1 1.3-2.2 1.3-1.5 0-2.3-.2-3.5-.7l-.5-.2-.5 3c.9.4 2.5.7 4.1.7 3.9 0 6.4-1.8 6.4-4.6 0-1.5-1-2.7-3.1-3.7-1.3-.6-2.1-1-2.1-1.7 0-.6.7-1.2 2.1-1.2 1.2 0 2.1.2 2.8.5l.3.2.6-2.9"/><linearGradient id="ai" gradientUnits="userSpaceOnUse" x1="249.106" y1="-893.388" x2="294.262" y2="-892.969" gradientTransform="matrix(1 0 0 -1 0 -300)"><stop offset="0" stop-color="#27255e"/><stop offset=".2" stop-color="#26265f"/><stop offset=".41" stop-color="#292d6e"/><stop offset=".595" stop-color="#2b337c"/><stop offset=".802" stop-color="#2a3586"/><stop offset="1" stop-color="#293990"/></linearGradient><path fill="url(#ai)" d="M289.8 586.2h-2.9c-.9 0-1.5.2-1.9 1.1l-5.5 12.4h3.9s.6-1.7.8-2h4.7l.4 2h3.4l-2.9-13.5m-4.6 8.8c.3-.8 1.5-3.8 1.5-3.8s.3-.8.5-1.3l.2 1.2s.7 3.2.9 3.9h-3.1z"/><g transform="matrix(.8051 0 0 .8051 8.091 9.256)"><linearGradient id="aj" gradientUnits="userSpaceOnUse" x1="361.782" y1="-1449.015" x2="406.939" y2="-1448.597" gradientTransform="matrix(.8051 0 0 -.8051 8.333 -441.433)"><stop offset="0" stop-color="#27255e"/><stop offset=".2" stop-color="#26265f"/><stop offset=".41" stop-color="#292d6e"/><stop offset=".595" stop-color="#2b337c"/><stop offset=".802" stop-color="#2a3586"/><stop offset="1" stop-color="#293990"/></linearGradient><path fill="url(#aj)" d="M313.1 716.7l-4.5 11.5-.5-2.3c-.8-2.7-3.4-5.6-6.3-7.1l4.1 14.7h4.8l7.2-16.8h-4.8"/><linearGradient id="ak" gradientUnits="userSpaceOnUse" x1="361.737" y1="-1444.155" x2="406.894" y2="-1443.737" gradientTransform="matrix(.8051 0 0 -.8051 8.333 -441.433)"><stop offset="0" stop-color="#27255e"/><stop offset=".2" stop-color="#26265f"/><stop offset=".41" stop-color="#292d6e"/><stop offset=".595" stop-color="#2b337c"/><stop offset=".802" stop-color="#2a3586"/><stop offset="1" stop-color="#293990"/></linearGradient><path fill="url(#ak)" d="M304.5 716.7h-7.4l-.1.3c5.7 1.4 9.5 4.8 11.1 8.8l-1.6-7.7c-.2-1.1-1-1.4-2-1.4"/></g><linearGradient id="al" gradientUnits="userSpaceOnUse" x1="249.057" y1="-888.148" x2="294.214" y2="-887.729" gradientTransform="matrix(1 0 0 -1 0 -300)"><stop offset="0" stop-color="#27255e"/><stop offset=".2" stop-color="#26265f"/><stop offset=".41" stop-color="#292d6e"/><stop offset=".595" stop-color="#2b337c"/><stop offset=".802" stop-color="#2a3586"/><stop offset="1" stop-color="#293990"/></linearGradient><path fill="url(#al)" d="M251.2 588.4c-.1-.3-.2-.5-.4-.6l1.1.5"/></g><path fill-rule="evenodd" clip-rule="evenodd" fill="#A3A3A3" d="M191.1 410.2h-.9c-.1.5-.4 1-.6 1.5l1.8 1.8-1 1-.4.5-1 1-1.8-1.8c-.5.3-1 .5-1.5.6v2.3H182.2v-2.3c-.5-.1-1-.3-1.5-.6L179 416l-1-1-.5-.5-.9-1 1.8-1.8c-.3-.5-.5-1-.6-1.5h-2.3v-3.4h2.3c.1-.5.3-1 .6-1.5l-1.7-1.8.9-1 .5-.5 1-1 1.8 1.8c.5-.3 1-.5 1.5-.6V400H185.9v2.3c.5.1 1.1.4 1.5.6l1.8-1.8 1 1 .5.5 1 1-1.8 1.7c.3.5.5 1 .6 1.5h2.3v3.4h-1.7zm-7.1-5.1c-2.1 0-3.4 1.4-3.4 3.4s1.4 3.4 3.4 3.4c2.1 0 3.4-1.4 3.4-3.4s-1.3-3.4-3.4-3.4z"/><g><path fill="#A3A3A3" d="M220.5 410.2c-.6 0-1.1.3-1.3.8h-2.8l-2.2-4.5-1.7 6.3-1.2-12.7-1.5-.1-2.9 11H202v1.5h6l2.1-7.9 1.1 12.6 1.5.1 1.8-6.5.8 1.7h3.8c.3.5.8.8 1.3.8.8 0 1.5-.7 1.5-1.5.1-.9-.6-1.6-1.4-1.6z"/></g><path fill-rule="evenodd" clip-rule="evenodd" fill="#A3A3A3" d="M250.6 409.2c-1-2.7-3.5-4.8-6.5-5.5.8-1.1 2.1-1.8 3.6-1.8 2.4 0 4.3 1.9 4.3 4.2 0 1.3-.5 2.4-1.4 3.1zm-8.3-7.1v2.7c4.2.2 7.5 3.5 7.5 7.6 0 1.7-.6 3.3-1.6 4.6l-1.2 1.3c-1.4 1.1-3.1 1.8-5 1.8s-3.6-.7-5-1.8l-1.2-1.3c-1-1.3-1.6-2.9-1.6-4.6 0-4.1 3.3-7.4 7.4-7.6v-2.7c-.4-.1-.7-.5-.7-1 0-.6.5-1.1 1.1-1.1.6 0 1.1.5 1.1 1.1-.1.4-.4.8-.8 1zm1.5 11.5h-2.2c-.4 0-.7-.3-.7-.7v-2.8c0-.4.3-.7.7-.7.4 0 .7.3.7.7v2.1h1.5c.4 0 .7.3.7.7 0 .4-.3.7-.7.7zm-10.4-4.4c-.8-.8-1.4-1.9-1.4-3.1 0-2.3 1.9-4.2 4.3-4.2 1.5 0 2.8.7 3.6 1.8-3.1.7-5.5 2.8-6.5 5.5z"/><path fill="#FFF" d="M425.7 533.3L417 542l-15.3-15.3-15.2 15.3-8.8-8.7L393 518l-15.3-15.3 8.8-8.7 15.2 15.3L417 494l8.7 8.8-15.2 15.2zM399.2 479.4l-9.4-9.4-12.1-12.1 9.4-9.4 12.1 12.1 29.2-29.2 9.4 9.4-29.2 29.2z"/><g fill="#F4DE94"><path d="M400.5 555.5c-13 0-23.5 10.5-23.5 23.5s10.5 23.5 23.5 23.5S424 591.9 424 579s-10.5-23.5-23.5-23.5zm0 40.5c-9.4 0-17-7.6-17-17s7.6-17 17-17 17 7.6 17 17-7.6 17-17 17z"/><path d="M402.7 574.6h-4.4c-.3 0-.6.3-.6.6v15.2c0 .3.3.6.6.6h4.4c.3 0 .6-.3.6-.6v-15.2c0-.3-.3-.6-.6-.6zM402.8 567h-4.6c-.3 0-.6.3-.6.6v4.6c0 .3.3.6.6.6h4.6c.3 0 .6-.3.6-.6v-4.6c0-.4-.3-.6-.6-.6z"/></g><g><path fill="#85B2D3" d="M288.6 402h-17.1c-1.4 0-2.4 1.1-2.4 2.4v9.8c0 1.3 1.1 2.4 2.4 2.4h3.3l.8 4.1 4.1-4.1h9c1.4 0 2.4-1.1 2.4-2.4v-9.8c-.1-1.3-1.2-2.4-2.5-2.4z"/></g><g fill="#646565"><path d="M522.418 551.315l5.533 3.412-3.412 5.533-5.533-3.412zM533.43 558.095l5.533 3.412-3.412 5.532-5.533-3.411zM544.527 564.927l5.533 3.412-3.412 5.533-5.533-3.412z"/><path d="M524.534 560.211l5.533 3.412-3.412 5.533-5.532-3.412zM535.546 566.99l5.533 3.412-3.412 5.533-5.532-3.412zM515.586 562.412l5.533 3.412-3.412 5.533-5.533-3.412zM526.598 569.192l5.533 3.412-3.412 5.533-5.533-3.412zM537.61 575.971l5.533 3.412-3.412 5.533-5.533-3.412z"/><path d="M517.702 571.308l5.533 3.412-3.412 5.533-5.532-3.412zM528.714 578.088l5.533 3.411-3.412 5.533-5.533-3.412zM508.722 573.372l5.532 3.412-3.411 5.532-5.533-3.411z"/><path d="M519.819 580.204l5.532 3.412-3.411 5.532-5.533-3.411zM530.83 586.983l5.533 3.412-3.412 5.533-5.532-3.412zM555.54 571.706l5.532 3.412-3.412 5.533-5.533-3.412zM546.591 573.908l5.533 3.412-3.412 5.532-5.533-3.411z"/><path d="M548.707 582.803l5.533 3.412-3.412 5.533-5.533-3.412z"/><path d="M539.811 584.92l5.533 3.412-3.412 5.532-5.532-3.412z"/><path d="M541.928 593.815l5.532 3.412-3.411 5.533-5.533-3.412zM520.227 549.995l2.128 1.312-36.218 58.733-2.128-1.313z"/><g><path d="M477.085 556.765l-5.532 3.412-3.412-5.533 5.533-3.412zM466.014 563.605l-5.533 3.411-3.412-5.532 5.533-3.412zM454.942 570.444l-5.533 3.412-3.412-5.533 5.533-3.412zM474.97 565.72l-5.533 3.412-3.412-5.532 5.533-3.412zM463.897 572.56l-5.532 3.412-3.412-5.533 5.533-3.411z"/><path d="M483.788 567.804l-5.533 3.412-3.412-5.533 5.533-3.412zM472.8 574.591l-5.532 3.412-3.412-5.533 5.533-3.411zM461.729 581.431l-5.533 3.412-3.412-5.533 5.533-3.412zM481.757 576.707l-5.533 3.412-3.412-5.533 5.533-3.411zM470.685 583.547l-5.533 3.412-3.412-5.533 5.533-3.412zM490.627 578.876l-5.532 3.412-3.412-5.533 5.533-3.412zM479.64 585.663l-5.532 3.412-3.412-5.533 5.533-3.412zM468.569 592.503l-5.533 3.412-3.412-5.533 5.533-3.412zM443.955 577.232l-5.533 3.411-3.412-5.532 5.533-3.412zM452.858 579.263l-5.533 3.411-3.412-5.532 5.533-3.412zM450.742 588.218l-5.533 3.412-3.412-5.533 5.533-3.411zM459.613 590.387l-5.533 3.412-3.412-5.533 5.533-3.412zM457.582 599.29l-5.533 3.412-3.412-5.533 5.533-3.411zM512.008 608.677l-2.128 1.312-36.218-58.733 2.128-1.312z"/></g></g><g fill="#646565"><path d="M153.5 289c0-.4.1-.8.2-1.1s.3-.6.6-.9.5-.4.9-.6c.3-.1.7-.2 1.1-.2.4 0 .8.1 1.1.2.3.1.6.3.9.6s.4.5.6.9.2.7.2 1.1c0 .4-.1.8-.2 1.1s-.3.6-.6.9-.5.4-.9.6c-.3.1-.7.2-1.1.2-.4 0-.8-.1-1.1-.2s-.6-.3-.9-.6-.4-.5-.6-.9c-.1-.3-.2-.7-.2-1.1zm1.1 0c0 .3 0 .6.1.8l.3.6c.1.2.3.3.5.4.2.1.5.1.7.1.3 0 .5 0 .7-.1.2-.1.4-.2.5-.4.2-.2.3-.4.3-.6.1-.2.1-.5.1-.8s0-.6-.1-.8l-.3-.6c-.1-.2-.3-.3-.5-.4-.2-.1-.5-.1-.7-.1-.3 0-.5 0-.7.1-.2.1-.4.2-.5.4-.2.2-.3.4-.3.6-.1.2-.1.5-.1.8zM159.9 291.7v-5.5H160.7l.1.1 2.9 3.7v-.3-3.5h.9v5.5h-.8c-.1 0-.1-.1-.2-.1l-2.9-3.7v3.8h-.8zM149.5 298.3v-5.5h1v4.7h2.2v.8h-3.2zM152.8 295.5c0-.4.1-.8.2-1.1.1-.3.3-.6.6-.9.2-.3.5-.4.9-.6s.7-.2 1.1-.2c.4 0 .8.1 1.1.2.3.1.6.3.9.6.2.3.4.5.6.9.1.3.2.7.2 1.1 0 .4-.1.8-.2 1.1s-.3.6-.6.9c-.2.3-.5.4-.9.6-.3.1-.7.2-1.1.2-.4 0-.8-.1-1.1-.2-.3-.1-.6-.3-.9-.6-.2-.3-.4-.5-.6-.9s-.2-.7-.2-1.1zm1 0c0 .3 0 .6.1.8l.3.6c.1.2.3.3.5.4.2.1.5.1.7.1.3 0 .5 0 .7-.1.2-.1.4-.2.5-.4.2-.2.3-.4.3-.6.1-.2.1-.5.1-.8 0-.3 0-.6-.1-.8l-.3-.6c-.1-.2-.3-.3-.5-.4-.2-.1-.5-.1-.7-.1-.3 0-.5 0-.7.1-.2.1-.4.2-.5.4-.2.2-.3.4-.3.6 0 .2-.1.5-.1.8zM158.4 298.3l2.2-5.5h1l2.2 5.5h-.8c-.1 0-.2 0-.2-.1-.1 0-.1-.1-.1-.2l-.4-1.1H160l-.4 1.1c0 .1-.1.1-.1.2-.1 0-.1.1-.2.1h-.9zm1.8-2.1h1.8l-.7-1.8c0-.1-.1-.2-.1-.3 0-.1-.1-.2-.1-.4 0 .1-.1.3-.1.4 0 .1-.1.2-.1.3l-.7 1.8zM164.3 298.3v-5.5h2.1c.4 0 .8.1 1.1.2.3.1.6.3.9.6.2.2.4.5.6.9.1.3.2.7.2 1.1 0 .4-.1.8-.2 1.1-.1.3-.3.6-.6.9-.2.2-.5.4-.9.6-.3.1-.7.2-1.1.2h-2.1zm1-.9h1.1c.3 0 .5 0 .7-.1.2-.1.4-.2.5-.4.1-.2.3-.4.3-.6s.1-.5.1-.8c0-.3 0-.6-.1-.8l-.3-.6c-.2-.2-.3-.3-.5-.4-.2-.1-.5-.1-.7-.1h-1.1v3.8z"/></g><g><path fill="#A3A3A3" d="M340.4 390.5h-27.6c-2.2 0-3.9 1.8-3.9 3.9v15.8c0 2.2 1.8 3.9 3.9 3.9h5.3l1.3 6.6 6.6-6.6h14.5c2.2 0 3.9-1.8 3.9-3.9v-15.8c0-2.1-1.8-3.9-4-3.9z"/></g><g><path fill="#646565" d="M373.4 390h-8.7c-.3 0-.6.3-.6.6v17.7c0 .3.3.6.6.6h8.7c.3 0 .6-.3.6-.6v-17.7c0-.3-.3-.6-.6-.6zm-5.3 1.3h1.9c.2 0 .3.1.3.3s-.1.3-.3.3h-1.9c-.2 0-.3-.1-.3-.3s.1-.3.3-.3zM373 407h-8v-14h8v14z"/></g><g fill="#646565"><path d="M422.5 390c-5.2 0-9.5 4.3-9.5 9.5s4.3 9.5 9.5 9.5 9.5-4.3 9.5-9.5-4.3-9.5-9.5-9.5zm-.3 10.1c0 .4-.1.8-.2 1.2-.1.4-.3.7-.6.9-.3.3-.6.5-.9.6-.4.1-.8.2-1.2.2-.5 0-.9-.1-1.2-.2-.4-.1-.7-.3-.9-.6-.3-.3-.5-.6-.6-.9-.1-.4-.2-.8-.2-1.2v-4.2h1.5v4.2c0 .3 0 .5.1.7.1.2.2.4.3.5.1.1.3.3.5.3.2.1.4.1.6.1.2 0 .4 0 .6-.1.2-.1.3-.2.5-.3.1-.1.2-.3.3-.5.1-.2.1-.4.1-.7v-4.2h1.5v4.2zm6.2 2.9c-.1 0-.2 0-.3-.1l-.2-.2-.5-1.3h-2.8l-.5 1.3c0 .1-.1.2-.2.2-.1.1-.2.1-.3.1h-1.1l2.8-7.1h1.5l2.8 7.1h-1.2z"/><path d="M426.2 397.7c-.1-.2-.1-.3-.1-.5 0 .2-.1.4-.1.5-.1.2-.1.3-.1.4l-.8 2.2h2.1l-.8-2.2c-.1-.1-.2-.2-.2-.4z"/></g><path fill="#646565" d="M441 390v15h19v-15h-19zm15.5 5.2l-.7-.9-10 7.5.7.9-3.6.4 1.5-3.4.7.9 10-7.5-.7-.9 3.6-.4-1.5 3.4z"/><g><g fill="#646565"><path d="M511.175 408.626c-2.5-2.2-3.7-5.5-3.4-9.1.3-3.9 2.5-7.6 5.6-9.5l.5.8c-2.9 1.8-4.8 5.1-5.1 8.8-.3 3.3.8 6.3 3.1 8.3l-.7.7z"/><path d="M513.475 409.026c-1.3 0-2.7-.3-3.9-.8-4.8-2.1-6.9-7.8-4.8-12.6 1-2.3 2.9-4.1 5.3-5 2.4-.9 5-.8 7.3.2 4.7 2.1 6.9 7.7 4.8 12.5v.1c-1 2.3-2.9 4.1-5.3 5-1.1.4-2.2.6-3.4.6zm0-18.1c-1 0-2 .2-3 .6-2.1.8-3.8 2.4-4.8 4.5-1.9 4.3 0 9.4 4.3 11.3 2.1.9 4.4 1 6.5.2 2.1-.8 3.8-2.4 4.8-4.5v-.1c1.8-4.3-.1-9.3-4.3-11.2-1.1-.5-2.3-.8-3.5-.8z"/><path d="M515.975 408.526l-.7-.6c2.3-2.7 3.3-6.8 2.7-10.4-.4-2.1-1.4-4.9-4.5-6.7l.5-.8c2.6 1.5 4.4 4.1 5 7.4.6 3.8-.6 8.2-3 11.1z"/><path d="M513.06 390.428l1-.001.032 18.1-1 .001z"/><path d="M513.675 395.026h-.8c-2.1-.2-3.8-1.1-5-2.6l.8-.6c1 1.3 2.5 2.1 4.3 2.2 2.1.2 4.4-.5 5.9-1.9l.6.7c-1.4 1.4-3.6 2.2-5.8 2.2zM514.175 398.926c-3.2 0-6.4-1.1-8.8-3.3l.7-.7c4.2 3.8 11.2 4.1 15.4.6l.6.7c-2.2 1.8-5 2.7-7.9 2.7zM514.275 403.326c-3.7 0-7.4-1.3-10-3.4l.6-.8c4.6 3.6 12.5 4.8 17.4.3l.7.7c-2.5 2.3-5.6 3.2-8.7 3.2z"/><path d="M513.775 407.226c-3.2 0-6.4-1.1-8.7-3.4l.7-.7c4.2 4 11.4 4.2 15.3.4l.7.7c-2.1 2-5 3-8 3z"/></g></g><g><path fill="#FFF" d="M465.6 419.7c1-1.4 2.4-2.3 4-2.8h.1c.2-.1.4-.1.6-.2h.1c1.3-.3 2.6-.3 3.8 0h.1c.2.1.4.1.6.2.1 0 .1 0 .2.1.2.1.3.1.5.2.1 0 .2.1.3.1 0 0 .1 0 .1.1.1.1.2.1.3.2.1 0 .2.1.2.1.2.1.4.2.5.4 0 0 .1 0 .1.1 1.3 1 2.3 2.4 2.8 4 .2.5-.1 1.1-.6 1.2-.5.2-1.1-.1-1.2-.6-.4-1.3-1.2-2.3-2.2-3.1-.1-.1-.3-.2-.5-.3l-.1-.1c-.1-.1-.3-.1-.4-.2-.1 0-.1-.1-.2-.1-.1-.1-.3-.1-.4-.2h-.1c-.2-.1-.3-.1-.5-.1-1-.2-2-.2-2.9 0-1.4.3-2.6 1.1-3.5 2.3l1.3 1-4.5 1.5.3-4.7 1.2.9z"/></g><g fill="#D8D8D8"><path d="M183.7 742.5h16.5v20.8h27.4v-39.5l-5.2-4.6-33.8 4.6V719c0-9.6-7.6-14.8-14.7-14.8h-29.3c-9.5 0-14.7 7.6-14.7 14.8v4.9h-39v19.5h24.4v-.8h19.5m5-23.6s0-4.9 4.9-4.9H174s4.9 0 4.9 4.9v4.9h-39.1V719zM134.9 778.1h-19.5v-2.8H90.9L85.7 803l5.2 4.6h136.7v-44.3h-24.4v14.8h-19.5"/></g><path fill-rule="evenodd" clip-rule="evenodd" fill="#FFF" d="M543.5 400l-6.5 6-6.5-6 2.1-2 4.4 4 4.4-4 2.1 2zM560.4 406l-4.4-4-4.4 4-2.1-2 6.5-6 6.5 6-2.1 2z"/><g fill="#4599D4"><path d="M115 768.5h9.8v-19.7H115v19.7z"/><path d="M183.4 719.3V714.4c0-9.6-7.6-14.8-14.7-14.8h-29.3c-9.5 0-14.7 7.6-14.7 14.8v4.9h-39v34.5h24.4V744h19.5v9.8h48.8V744H198v9.8h24.4v-34.5h-39zm-48.9-4.9s0-4.9 4.9-4.9h29.3s4.9 0 4.9 4.9v4.9h-39.1v-4.9zM198 773.5h-19.5v-14.8h-48.8v14.8h-19.5v-14.8H85.7V803h136.7v-44.3H198v14.8z"/><path d="M183.4 768.5h9.8v-19.7h-9.8v19.7z"/></g><path opacity=".28" fill="#DB4342" d="M153.9 749.7l-23.7-62.2h47.3l-23.6 62.2z"/><path fill="#936A9C" d="M67.5 714.3c-6.5-5.9-9.8-14.8-9-24.5.9-10.6 6.6-20.5 14.8-25.7l1.4 2.2c-7.6 4.8-12.8 13.9-13.6 23.7-.7 8.8 2.2 16.9 8.1 22.3l-1.7 2z"/><path fill="#936A9C" d="M73.7 715.4c-3.5 0-7.1-.8-10.4-2.3-12.7-5.8-18.3-21-12.6-33.9 2.8-6.3 7.8-11 14.1-13.4 6.3-2.4 13.1-2.2 19.3.6 12.5 5.7 18.2 20.8 12.7 33.7l-.1.2c-2.8 6.3-7.8 11-14.1 13.4-2.9 1.1-5.9 1.7-8.9 1.7zm-.1-48.7c-2.7 0-5.4.5-8 1.5-5.7 2.2-10.1 6.5-12.6 12.1-5.1 11.6 0 25.3 11.3 30.5 5.5 2.5 11.7 2.7 17.3.6 5.7-2.2 10.1-6.5 12.6-12.1l.1-.2c4.9-11.5-.2-25.1-11.4-30.2-2.9-1.5-6.1-2.2-9.3-2.2z"/><path fill="#936A9C" d="M80.1 714.2l-2-1.7c6-7.3 8.8-18.3 7.1-28-1-5.6-3.8-13.3-12-18.1l1.3-2.3c7 4.1 11.7 11.2 13.2 19.9 1.9 10.5-1.1 22.3-7.6 30.2z"/><path fill="#936A9C" d="M72.6 714l-.1-48.9h2.6l.1 48.9h-2.6z"/><path fill="#936A9C" d="M74.2 677.8c-.7 0-1.4 0-2.1-.1-5.5-.5-10.2-3-13.2-7.1l2-1.6c2.6 3.5 6.7 5.6 11.4 6.1 5.7.5 11.7-1.4 15.7-5.1l1.7 1.9c-4 3.7-9.8 5.9-15.5 5.9zM75.4 688.3c-8.4 0-16.9-3-23.4-9l1.7-1.9c11.1 10.3 29.8 11 40.8 1.5l1.7 2c-5.7 4.9-13.2 7.4-20.8 7.4zM75.6 700.1c-9.8 0-19.6-3.6-26.7-9.2l1.6-2c12.2 9.8 33.3 12.9 46.1.9l1.7 1.9c-6.2 5.9-14.4 8.4-22.7 8.4z"/><path fill="#936A9C" d="M74.4 710.7c-8.4 0-16.9-3.1-23.1-9.2l1.8-1.9c11.1 10.9 30.1 11.4 40.7 1l1.8 1.9c-5.7 5.5-13.4 8.2-21.2 8.2z"/><path fill="#6F9ED3" d="M280.3 731.1c-13.1 0-23.7 10.6-23.7 23.6 0 13 10.6 23.6 23.7 23.6s23.7-10.6 23.7-23.6c0-13.1-10.6-23.6-23.7-23.6zm-.8 25.1c0 1.1-.2 2-.5 2.9-.3.9-.8 1.7-1.5 2.3-.6.6-1.4 1.1-2.3 1.5-.9.4-1.9.5-3.1.5-1.1 0-2.2-.2-3.1-.5-.9-.4-1.7-.9-2.3-1.5-.6-.6-1.1-1.4-1.5-2.3-.3-.9-.5-1.9-.5-2.9v-10.5h3.6v10.5c0 .6.1 1.2.3 1.7.2.5.4 1 .7 1.3.3.4.7.6 1.2.8.5.2 1 .3 1.6.3.6 0 1.1-.1 1.6-.3.5-.2.9-.5 1.2-.8.3-.4.6-.8.7-1.3.2-.5.3-1.1.3-1.7v-10.5h3.6v10.5zm15.5 7.1c-.3 0-.6-.1-.8-.2-.2-.2-.3-.3-.4-.6l-1.2-3.4h-7l-1.2 3.4c-.1.2-.2.4-.4.6-.2.2-.5.2-.8.2h-2.9l6.9-17.6h3.7l6.9 17.6H295z"/><path fill="#6F9ED3" d="M289.5 750.3c-.1-.4-.2-.8-.4-1.2-.1.5-.2.9-.4 1.3-.1.4-.2.7-.4 1l-1.9 5.3h5.2l-1.9-5.4c0-.3-.1-.6-.2-1z"/><path fill="#FFF" d="M433.1 629.9h32.2v30.6h-32.2z"/><path fill="#DB4342" d="M130.3 640v47.5h47.3V640h-47.3zm31.5 19.8h3.9v-11.9h3.9v11.9h3.9v5.9h-3.9v13.9h-3.9v-13.9h-3.9v-5.9zm-13.8 5.9h3.9v-17.8h3.9v17.8h3.9v5.9h-3.9v7.9h-3.9v-7.9H148v-5.9zm-13.8-9.9h3.9v-7.9h3.9v7.9h3.9v5.9H142v17.8h-3.9v-17.8h-3.9v-5.9z"/><path fill="#7EC681" d="M205.2 671.7v36.4h48.3v-36.4h-48.3zm39.5 12.7l-1.7-2.3-25.4 18.2 1.7 2.3-9 .9 3.7-8.2 1.7 2.3 25.4-18.2-1.7-2.3 9-.9-3.7 8.2z"/><path opacity=".2" fill="#7EC681" d="M195 759.3l58.5-51.1h-48.3L195 759.3z"/><path opacity=".78" fill="#FFEDC6" d="M96.2 786.7l-82.7-6.4h23.6l2.6-2.3v-47.9l56.5 56.6z"/><path fill="#FAE0AC" d="M51.4 766.8v-24.6c0-1-.8-1.8-1.7-1.8h-48c-.9 0-1.7.8-1.7 1.8v24.6c0 1 .8 1.8 1.7 1.8h48c.9-.1 1.7-.9 1.7-1.8zM48 751.9v5.3c0 .5-.4.9-.9.9s-.9-.4-.9-.9v-5.3c0-.5.4-.9.9-.9s.9.4.9.9zM6.9 766.8v-24.6h37.7v24.6H6.9z"/><path fill="#F2B42C" d="M13.5 780.3H38c1 0 1.7-.8 1.7-1.7v-48.2c0-.9-.8-1.7-1.7-1.7H13.5c-1 0-1.7.8-1.7 1.7v48.2c-.1 1 .7 1.7 1.7 1.7zm14.8-3.4h-5.2c-.5 0-.9-.4-.9-.9s.4-.9.9-.9h5.2c.5 0 .9.4.9.9s-.4.9-.9.9zm-14.8-41.4H38v37.9H13.5v-37.9z"/><path opacity=".34" fill="#6F9ED3" d="M211.7 786.7l75.2-9.5L264 765l-4-11 6.4-18.7-54.7 51.4z"/><path opacity=".14" fill="#936A9C" d="M113.1 759.1l-59.5-53.3.4-2.8s5.8 16.5 33 7c14.7-5.1 9.6-31.4 9.6-31.4l16.5 80.5z"/><path fill="#DB4342" d="M430.6 626.8v36h36v-36h-36zm24 15h3v-9h3v9h3v4.5h-3v10.5h-3v-10.5h-3v-4.5zm-10.5 4.5h3v-13.5h3v13.5h3v4.5h-3v6h-3v-6h-3v-4.5zm-10.5-7.5h3v-6h3v6h3v4.5h-3v13.5h-3v-13.5h-3v-4.5z"/><path fill="#FFF" d="M380.6 631.6h32.2v23.7h-32.2z"/><path fill="#7EC681" d="M378 630v27h36v-27h-36zm29.5 9.4l-1.3-1.7-18.9 13.5 1.3 1.7-6.7.7 2.8-6.1 1.3 1.7 18.9-13.5-1.3-1.7 6.7-.7-2.8 6.1z"/><g><circle fill="#FFF" cx="492" cy="639" r="12.2"/><path fill="#936A9C" d="M488.8 651.4c-3.3-3-4.9-7.4-4.5-12.3.4-5.3 3.3-10.2 7.4-12.9l.7 1.1c-3.8 2.4-6.4 6.9-6.8 11.9-.4 4.4 1.1 8.5 4.1 11.2l-.9 1z"/><path fill="#936A9C" d="M492 651.9c-1.8 0-3.5-.4-5.2-1.1-6.4-2.9-9.2-10.5-6.3-17 1.4-3.1 3.9-5.5 7.1-6.7 3.2-1.2 6.6-1.1 9.7.3 6.3 2.9 9.1 10.4 6.4 16.9l-.1.1c-1.4 3.1-3.9 5.5-7 6.7-1.6.5-3.1.8-4.6.8zm-.1-24.4c-1.4 0-2.7.2-4 .7-2.8 1.1-5.1 3.2-6.3 6.1-2.6 5.8 0 12.7 5.7 15.3 2.8 1.3 5.9 1.4 8.7.3 2.8-1.1 5.1-3.2 6.3-6.1l.1-.1c2.5-5.8-.1-12.6-5.7-15.1-1.6-.8-3.2-1.1-4.8-1.1z"/><path fill="#936A9C" d="M495.2 651.3l-1-.8c3-3.7 4.4-9.2 3.6-14-.5-2.8-1.9-6.7-6-9.1l.6-1.1c3.5 2.1 5.9 5.6 6.6 10 1 5.1-.6 11.1-3.8 15zM491.4 651.2v-24.5h1.3v24.5h-1.3z"/><path fill="#936A9C" d="M492.2 633h-1.1c-2.7-.3-5.1-1.5-6.6-3.5l1-.8c1.3 1.7 3.3 2.8 5.7 3 2.8.3 5.9-.7 7.9-2.5l.9 1c-2 1.8-4.9 2.8-7.8 2.8zM492.8 638.3c-4.2 0-8.5-1.5-11.7-4.5l.9-1c5.6 5.2 14.9 5.5 20.5.7l.8 1c-2.9 2.6-6.7 3.8-10.5 3.8zM492.9 644.3c-4.9 0-9.8-1.8-13.4-4.6l.8-1c6.1 4.9 16.7 6.5 23.1.4l.9 1c-3.1 2.9-7.2 4.2-11.4 4.2z"/><path fill="#936A9C" d="M492.3 649.5c-4.2 0-8.5-1.5-11.6-4.6l.9-.9c5.6 5.5 15.1 5.7 20.4.5l.9.9c-2.8 2.8-6.7 4.1-10.6 4.1z"/></g><path opacity=".48" fill="#FFF" d="M353.6 653.9l.1 4.5-18.5-.4-.2-4-5.2-.2v-18.1l5.2-.1.2-4.7h18.3l.3 4.7 5.1-.1v18.4z"/><g><circle fill="#FFF" cx="501.5" cy="650.6" r="12.4"/><path fill="#6F9ED3" d="M501.5 636.8c-7.6 0-13.8 6.2-13.8 13.8 0 7.6 6.2 13.8 13.8 13.8 7.6 0 13.8-6.2 13.8-13.8 0-7.6-6.2-13.8-13.8-13.8zm-.5 14.7c0 .6-.1 1.2-.3 1.7-.2.5-.5 1-.9 1.3-.4.4-.8.7-1.4.9-.5.2-1.1.3-1.8.3s-1.3-.1-1.8-.3c-.5-.2-1-.5-1.4-.9-.4-.4-.7-.8-.9-1.3-.2-.5-.3-1.1-.3-1.7v-6.1h2.1v6.1c0 .4 0 .7.1 1 .1.3.2.6.4.8.2.2.4.4.7.5.3.1.6.2.9.2.3 0 .7-.1.9-.2.3-.1.5-.3.7-.5.2-.2.3-.5.4-.8.1-.3.1-.6.1-1v-6.1h2.1v6.1zm9.1 4.1c-.2 0-.3 0-.4-.1l-.3-.3-.7-2h-4.1l-.7 2c0 .1-.1.2-.2.3-.1.1-.3.1-.4.1h-1.7l4-10.2h2.2l4 10.2h-1.7z"/><path fill="#6F9ED3" d="M506.8 648c-.1-.2-.1-.5-.2-.7-.1.3-.1.5-.2.7-.1.2-.1.4-.2.6l-1.1 3.1h3l-1.1-3.1c0-.2-.1-.4-.2-.6z"/></g><g><path fill="#FAE0AC" d="M362.4 653.4v-17.2c0-.7-.5-1.2-1.2-1.2h-33.6c-.7 0-1.2.6-1.2 1.2v17.2c0 .7.5 1.2 1.2 1.2h33.6c.6 0 1.2-.6 1.2-1.2zm-2.4-10.5v3.7c0 .3-.3.6-.6.6s-.6-.3-.6-.6v-3.7c0-.3.3-.6.6-.6s.6.3.6.6zm-28.8 10.5v-17.2h26.4v17.2h-26.4z"/><path fill="#F2B42C" d="M335.8 662.9h17.1c.7 0 1.2-.5 1.2-1.2v-33.8c0-.7-.6-1.2-1.2-1.2h-17.1c-.7 0-1.2.5-1.2 1.2v33.8c0 .6.5 1.2 1.2 1.2zm10.4-2.5h-3.7c-.3 0-.6-.3-.6-.6s.3-.6.6-.6h3.7c.3 0 .6.3.6.6 0 .4-.3.6-.6.6zm-10.4-28.9h17.1V658h-17.1v-26.5z"/></g><g><path fill="#646565" d="M382 390.6v8.7c0 .3.3.6.6.6h17.7c.3 0 .6-.3.6-.6v-8.7c0-.3-.3-.6-.6-.6h-17.7c-.3 0-.6.3-.6.6zm1.3 5.3V394c0-.2.1-.3.3-.3.2 0 .3.1.3.3v1.9c0 .2-.1.3-.3.3-.2 0-.3-.1-.3-.3zM399 391v8h-14v-8h14z"/></g><g><path fill="#FFF" d="M463 425.6v9.7c0 .3.3.6.6.6h16.7c.3 0 .6-.3.6-.6v-9.7c0-.3-.3-.6-.6-.6h-16.7c-.3 0-.6.3-.6.6zm16 1.4v7h-14v-7h14z"/></g><g><path fill="#FFF" d="M487.6 419.7c1-1.4 2.4-2.3 4-2.8h.1c.2-.1.4-.1.6-.2h.1c1.3-.3 2.6-.3 3.8 0h.1c.2.1.4.1.6.2.1 0 .1 0 .2.1.2.1.3.1.5.2.1 0 .2.1.3.1 0 0 .1 0 .1.1.1.1.2.1.3.2.1 0 .2.1.2.1.2.1.4.2.5.4 0 0 .1 0 .1.1 1.3 1 2.3 2.4 2.8 4 .2.5-.1 1.1-.6 1.2-.5.2-1.1-.1-1.2-.6-.4-1.3-1.2-2.3-2.2-3.1-.1-.1-.3-.2-.5-.3l-.1-.1c-.1-.1-.3-.1-.4-.2-.1 0-.1-.1-.2-.1-.1-.1-.3-.1-.4-.2h-.1c-.2-.1-.3-.1-.5-.1-1-.2-2-.2-2.9 0-1.4.3-2.6 1.1-3.5 2.3l1.3 1-4.5 1.5.3-4.7 1.2.9z" opacity=".35"/><path fill="#FFF" d="M485 425.6v9.7c0 .3.3.6.6.6h16.7c.3 0 .6-.3.6-.6v-9.7c0-.3-.3-.6-.6-.6h-16.7c-.3 0-.6.3-.6.6zm16 1.4v7h-14v-7h14z"/></g><g><path fill="#FFF" d="M520.4 420.6c-1.4 1-2.3 2.4-2.8 4v.1c-.1.2-.1.4-.2.6v.1c-.3 1.3-.3 2.6 0 3.8v.1c.1.2.1.4.2.6 0 .1 0 .1.1.2.1.2.1.3.2.5 0 .1.1.2.1.3 0 0 0 .1.1.1.1.1.1.2.2.3 0 .1.1.2.1.2.1.2.2.4.4.5 0 0 0 .1.1.1 1 1.3 2.4 2.3 4 2.8.5.2 1.1-.1 1.2-.6.2-.5-.1-1.1-.6-1.2-1.3-.4-2.3-1.2-3.1-2.2-.1-.1-.2-.3-.3-.5l-.1-.1c-.1-.1-.1-.3-.2-.4 0-.1-.1-.1-.1-.2-.1-.1-.1-.3-.2-.4v-.1c-.1-.2-.1-.3-.1-.5-.2-1-.2-2 0-2.9.3-1.4 1.1-2.6 2.3-3.5l1 1.3 1.5-4.5-4.7.3.9 1.2zM536.4 418h-9.7c-.3 0-.6.3-.6.6v16.7c0 .3.3.6.6.6h9.7c.3 0 .6-.3.6-.6v-16.7c0-.3-.3-.6-.6-.6zm-1.4 16h-7v-14h7v14z"/></g><g><path fill="#FFF" d="M546.4 420.6c-1.4 1-2.3 2.4-2.8 4v.1c-.1.2-.1.4-.2.6v.1c-.3 1.3-.3 2.6 0 3.8v.1c.1.2.1.4.2.6 0 .1 0 .1.1.2.1.2.1.3.2.5 0 .1.1.2.1.3 0 0 0 .1.1.1.1.1.1.2.2.3 0 .1.1.2.1.2.1.2.2.4.4.5 0 0 0 .1.1.1 1 1.3 2.4 2.3 4 2.8.5.2 1.1-.1 1.2-.6.2-.5-.1-1.1-.6-1.2-1.3-.4-2.3-1.2-3.1-2.2-.1-.1-.2-.3-.3-.5l-.1-.1c-.1-.1-.1-.3-.2-.4 0-.1-.1-.1-.1-.2-.1-.1-.1-.3-.2-.4v-.1c-.1-.2-.1-.3-.1-.5-.2-1-.2-2 0-2.9.3-1.4 1.1-2.6 2.3-3.5l1 1.3 1.5-4.5-4.7.3.9 1.2z" opacity=".35"/><path fill="#FFF" d="M562.4 418h-9.7c-.3 0-.6.3-.6.6v16.7c0 .3.3.6.6.6h9.7c.3 0 .6-.3.6-.6v-16.7c0-.3-.3-.6-.6-.6zm-1.4 16h-7v-14h7v14z"/></g><g fill="#C0C0C0"><path d="M326 687.8c0-1.1.2-2.2.5-3.1.3-.9.8-1.8 1.5-2.6h1.6c-.6.8-1.1 1.7-1.4 2.7-.6 2-.6 4.1 0 6 .3 1 .8 1.8 1.4 2.6H328c-.7-.7-1.2-1.6-1.5-2.5-.3-1-.5-2.1-.5-3.1M332.8 692.3c0 .6-.5 1.1-1.1 1.1-.6 0-1.1-.5-1.1-1.1s.5-1.1 1.1-1.1c.6-.1 1.1.4 1.1 1.1zM334.9 682.1l-.3 2.4 2.5-.7.2 1.7-2.2.2 1.5 2-1.5.8-1-2.1-.9 2.1-1.5-.8 1.5-2-2.2-.2.3-1.7 2.4.7-.3-2.4h1.5M341.2 687.8c0 1.1-.2 2.1-.5 3.1-.3.9-.8 1.8-1.5 2.5h-1.6c.6-.8 1.1-1.7 1.4-2.6.3-1 .5-2 .5-3s-.2-2-.5-3-.8-1.9-1.4-2.7h1.6c.7.8 1.2 1.6 1.5 2.6.3.9.5 2 .5 3.1"/></g><g fill="#F37A7C"><path d="M349 687.8c0-1.1.2-2.2.5-3.1.3-.9.8-1.8 1.5-2.6h1.6c-.6.8-1.1 1.7-1.4 2.7-.6 2-.6 4.1 0 6 .3 1 .8 1.8 1.4 2.6H351c-.7-.7-1.2-1.6-1.5-2.5-.3-1-.5-2.1-.5-3.1M355.8 692.3c0 .6-.5 1.1-1.1 1.1-.6 0-1.1-.5-1.1-1.1s.5-1.1 1.1-1.1c.6-.1 1.1.4 1.1 1.1zM357.9 682.1l-.3 2.4 2.5-.7.2 1.7-2.2.2 1.5 2-1.5.8-1-2.1-.9 2.1-1.5-.8 1.5-2-2.2-.2.3-1.7 2.4.7-.3-2.4h1.5M364.2 687.8c0 1.1-.2 2.1-.5 3.1-.3.9-.8 1.8-1.5 2.5h-1.6c.6-.8 1.1-1.7 1.4-2.6.3-1 .5-2 .5-3s-.2-2-.5-3-.8-1.9-1.4-2.7h1.6c.7.8 1.2 1.6 1.5 2.6.3.9.5 2 .5 3.1"/></g><g fill-rule="evenodd" clip-rule="evenodd" fill="#FFF"><path d="M390 679.3h-4.3c-.4 0-.7.3-.7.7 0 .4.3.7.7.7h2.5l-3.4 3.4c-.3.3-.3.7 0 1s.7.3 1 0l3.4-3.4v2.5c0 .4.3.7.7.7.2 0 .4-.1.5-.2.1-.1.2-.3.2-.5v-4.3c.1-.3-.2-.6-.6-.6zM374 680v4.3c0 .2.1.4.2.5.1.1.3.2.5.2.4 0 .7-.3.7-.7v-2.5l3.4 3.4c.3.3.7.3 1 0s.3-.7 0-1l-3.4-3.4h2.5c.4 0 .7-.3.7-.7 0-.4-.3-.7-.7-.7h-4.3c-.3-.1-.6.2-.6.6zM390.7 695.5v-4.3c0-.2-.1-.4-.2-.5-.1-.1-.3-.2-.5-.2-.4 0-.7.3-.7.7v2.5l-3.4-3.4c-.3-.3-.7-.3-1 0s-.3.7 0 1l3.4 3.4h-2.5c-.4 0-.7.3-.7.7 0 .4.3.7.7.7h4.3c.3.1.6-.2.6-.6zM374.7 696.2h4.3c.4 0 .7-.3.7-.7 0-.4-.3-.7-.7-.7h-2.5l3.4-3.4c.3-.3.3-.7 0-1s-.7-.3-1 0l-3.4 3.4v-2.5c0-.4-.3-.7-.7-.7-.2 0-.4.1-.5.2s-.2.3-.2.5v4.3c-.1.3.2.6.6.6z"/></g></g></svg>